<?xml version="1.0" standalone="no"?>
<!DOCTYPE svg PUBLIC "-//W3C//DTD SVG 20010904//EN"
 "http://www.w3.org/TR/2001/REC-SVG-20010904/DTD/svg10.dtd">
<svg version="1.0" xmlns="http://www.w3.org/2000/svg"
 width="581.000000pt" height="790.000000pt" viewBox="0 0 581.000000 790.000000"
 preserveAspectRatio="xMidYMid meet">

<g transform="translate(0.000000,790.000000) scale(0.100000,-0.100000)"
fill="#000000" stroke="none">
<path d="M0 3950 l0 -3950 2905 0 2905 0 -2 579 -3 579 -24 19 c-13 11 -25 31
-26 44 -1 13 -8 23 -14 21 -6 -1 -10 1 -10 5 4 24 -5 29 -43 28 -24 0 -49 -4
-56 -9 -9 -5 -18 -1 -27 10 -11 15 -14 16 -15 4 0 -12 -3 -11 -11 3 -6 9 -14
15 -20 12 -5 -4 -9 -2 -9 4 0 6 -16 13 -35 17 -25 4 -35 12 -35 25 0 20 -20
37 -20 17 -1 -7 -9 -3 -20 11 -13 15 -27 22 -39 18 -11 -3 -22 1 -25 9 -3 7
-12 11 -20 8 -8 -3 -17 0 -21 5 -3 6 -11 8 -17 5 -7 -5 -9 0 -6 13 3 13 -1 24
-13 32 -11 6 -19 17 -19 25 0 9 -7 12 -19 9 -13 -3 -27 4 -42 21 -13 15 -29
24 -36 22 -8 -3 -10 1 -6 11 5 12 3 14 -7 8 -9 -5 -11 -4 -6 4 13 20 -4 51
-27 51 -13 0 -31 6 -42 13 -18 13 -170 44 -187 39 -5 -1 -8 1 -8 5 0 5 -64 8
-143 8 -136 0 -146 2 -232 33 -49 19 -130 44 -179 57 -49 14 -97 27 -105 31
-19 9 -15 7 -71 23 -25 7 -85 25 -135 41 -49 16 -126 36 -170 45 -44 9 -88 18
-98 21 -17 5 -17 3 -6 -17 9 -17 9 -24 0 -27 -6 -2 -8 -9 -5 -14 4 -7 2 -8 -4
-4 -7 4 -12 15 -12 25 0 10 -11 28 -25 41 -14 13 -25 30 -25 38 0 8 -9 31 -19
51 -10 20 -31 65 -46 101 -30 70 -52 103 -41 60 3 -14 6 -35 6 -46 0 -14 8
-24 21 -27 12 -3 18 -10 14 -17 -5 -8 -11 -7 -23 2 -13 11 -14 10 -8 -17 10
-41 66 -166 84 -187 11 -14 13 -24 5 -40 -10 -22 -10 -22 -17 9 -9 40 -45 114
-46 93 0 -8 7 -28 15 -44 20 -38 11 -94 -11 -75 -8 6 -17 10 -20 7 -11 -12 58
-67 103 -83 121 -43 170 -75 219 -142 36 -49 61 -71 105 -93 66 -34 80 -49 50
-57 -12 -3 -21 -11 -21 -19 0 -8 -6 -11 -15 -8 -8 4 -15 1 -15 -5 0 -6 14 -14
30 -18 36 -7 50 -23 21 -23 -13 0 -21 -7 -21 -16 0 -12 -6 -15 -27 -10 -27 6
-27 6 -9 -9 11 -8 17 -17 15 -20 -4 -4 -317 -51 -465 -71 -40 -5 -43 -3 -89
51 -26 30 -50 53 -53 50 -3 -2 13 -25 34 -51 131 -157 294 -369 294 -383 0 -4
-15 -6 -34 -5 -34 3 -35 3 -29 -31 5 -28 2 -35 -11 -35 -12 0 -15 -7 -12 -23
2 -13 0 -30 -5 -38 -7 -11 -9 -11 -9 -1 0 7 -4 10 -10 7 -17 -11 -11 -23 15
-29 18 -5 25 -13 25 -31 0 -26 7 -30 27 -17 16 10 5 52 -12 46 -7 -3 -16 -1
-19 4 -3 6 2 13 11 16 15 6 15 8 3 16 -29 18 0 22 36 5 35 -17 37 -16 57 4 21
21 21 21 2 22 -11 1 -23 1 -27 0 -5 0 -8 4 -8 10 0 21 64 0 87 -29 20 -23 21
-28 8 -38 -8 -6 -12 -14 -8 -17 3 -4 1 -7 -5 -7 -7 0 -12 4 -12 8 0 4 -9 8
-20 9 -11 1 -18 -2 -15 -7 3 -4 -1 -11 -7 -13 -8 -4 -7 -6 4 -6 9 -1 19 -7 21
-13 4 -10 6 -10 6 0 1 15 51 16 51 1 0 -6 -7 -9 -15 -5 -8 3 -15 1 -15 -5 0
-6 10 -9 22 -7 11 2 23 -3 26 -11 3 -8 0 -11 -7 -7 -6 4 -11 3 -11 -2 0 -15
-58 -33 -66 -21 -3 6 -15 9 -25 6 -10 -3 -22 0 -26 5 -3 7 -1 8 5 4 7 -4 12
-2 12 3 0 14 -13 14 -28 -1 -7 -7 -12 -9 -12 -5 0 4 -9 3 -19 -2 -22 -12 -48
10 -35 30 5 8 3 9 -5 5 -7 -5 -10 -14 -7 -21 2 -7 -2 -21 -10 -32 -13 -17 -14
-16 -8 10 6 27 5 28 -14 16 -12 -8 -17 -16 -11 -20 11 -6 -5 -22 -34 -32 -12
-5 -16 -3 -12 6 4 6 -2 2 -13 -10 -11 -12 -22 -19 -26 -16 -12 12 -6 44 9 49
18 7 20 34 2 34 -19 0 -58 -30 -52 -41 3 -5 -1 -6 -10 -3 -11 5 -15 0 -13 -17
2 -19 -1 -23 -17 -21 -26 4 -45 29 -38 50 4 14 3 15 -5 2 -6 -8 -8 -18 -5 -23
3 -5 -4 -6 -17 -2 -19 6 -21 4 -15 -14 5 -15 2 -21 -9 -21 -10 0 -16 9 -16 23
-1 21 -1 21 -12 2 -16 -28 -30 -36 -45 -23 -12 9 -17 5 -14 -14 0 -3 -7 -5
-17 -3 -9 1 -16 9 -16 18 1 9 -5 18 -12 21 -8 3 -13 0 -11 -7 1 -7 -7 -12 -17
-12 -11 0 -21 -6 -24 -13 -3 -9 -9 -6 -20 10 -9 13 -16 26 -15 29 1 4 -6 5
-17 2 -24 -6 -59 -43 -40 -43 10 0 10 -3 0 -15 -11 -14 -10 -14 14 -5 21 8 27
7 23 -2 -2 -7 -11 -12 -21 -10 -9 2 -16 -1 -16 -5 0 -5 -11 -10 -25 -11 -19
-1 -23 2 -19 16 2 9 -1 7 -7 -5 -13 -24 -39 -31 -39 -12 0 7 8 18 17 25 10 7
14 16 9 21 -5 4 -11 2 -13 -5 -3 -6 -9 -10 -14 -6 -5 3 -9 0 -9 -7 0 -7 -6 -4
-14 6 -8 11 -11 26 -8 35 4 12 2 12 -8 3 -10 -9 -16 -8 -28 3 -10 11 -18 12
-25 5 -18 -18 -47 -13 -47 8 0 25 -16 37 -56 40 -8 0 -12 6 -8 12 3 6 15 9 25
6 22 -6 24 -1 6 18 -9 9 -19 10 -30 3 -20 -10 -23 2 -5 20 9 9 7 12 -10 12
-12 0 -27 -9 -34 -20 -14 -22 -38 -27 -38 -8 0 6 3 9 6 5 10 -9 32 16 27 30
-3 8 4 13 18 14 13 0 18 3 12 6 -7 2 -13 9 -13 14 0 6 -11 21 -25 34 -20 21
-34 25 -79 25 -74 0 -82 18 -10 22 36 2 59 8 62 16 2 7 0 12 -5 11 -4 -1 -12
0 -18 1 -5 1 -19 3 -30 4 -12 0 -19 7 -17 15 3 12 0 12 -12 1 -13 -10 -16 -10
-17 1 0 8 -6 1 -13 -14 -12 -26 -14 -27 -29 -13 -8 9 -25 16 -36 16 -24 0 -27
10 -8 29 10 10 9 11 -4 6 -10 -4 -20 -1 -24 4 -3 6 -11 9 -16 6 -5 -4 -9 -1
-9 4 0 6 5 11 10 11 6 0 10 4 10 9 0 5 -17 7 -37 4 -29 -4 -35 -2 -27 7 7 7
24 13 38 13 29 2 32 7 14 25 -15 15 -45 16 -50 0 -3 -7 -13 -5 -31 7 -15 9
-27 13 -27 7 0 -6 -8 -9 -17 -7 -10 2 -31 4 -46 4 l-28 1 38 48 c21 26 43 56
50 67 7 11 24 39 38 62 29 49 43 103 26 103 -6 0 -11 -6 -11 -12 0 -9 -4 -8
-10 2 -5 8 -10 29 -10 46 0 27 -9 66 -27 114 -4 8 -5 22 -4 31 1 9 -4 19 -12
22 -10 4 -14 27 -15 87 0 45 -6 87 -12 95 -14 16 -15 110 -2 144 9 26 4 74 -7
66 -4 -2 -5 9 -3 26 2 16 0 29 -5 29 -5 0 -7 15 -5 34 3 26 -1 37 -18 49 -15
10 -18 17 -9 22 8 6 7 10 -5 17 -13 7 -15 18 -11 48 3 22 1 41 -5 45 -5 3 -9
26 -8 51 0 24 -2 47 -5 51 -4 3 -1 13 6 21 10 12 9 16 -1 20 -10 3 -10 7 -1
18 9 11 9 18 -1 29 -9 10 -9 15 -1 15 17 0 13 39 -12 111 -13 37 -22 75 -20
85 14 84 14 94 5 94 -6 0 -9 22 -6 57 3 31 2 63 -2 72 -3 9 -6 58 -6 109 -1
57 -5 92 -11 92 -6 0 -2 7 9 15 10 8 14 15 7 15 -7 0 -10 9 -8 21 2 12 -1 31
-7 42 -6 12 -11 37 -12 56 -1 20 -9 50 -18 68 -10 20 -12 35 -6 41 13 13 17
61 6 68 -4 3 -6 10 -3 15 4 5 1 9 -4 9 -6 0 -11 9 -11 21 0 11 -5 17 -10 14
-14 -8 -30 37 -19 51 12 14 3 96 -28 259 -2 11 -4 27 -4 36 0 9 -7 16 -16 15
-9 0 -17 8 -19 19 -2 11 -8 21 -13 23 -10 3 -14 22 -25 97 -2 17 -5 35 -7 40
-1 6 1 18 6 29 5 11 3 21 -5 26 -7 4 -13 23 -14 41 -1 19 -8 44 -14 56 -9 16
-9 24 -1 29 8 4 7 9 -2 14 -10 7 -10 11 0 24 11 13 11 17 0 21 -20 8 -23 81
-4 89 21 8 19 29 -4 43 -14 9 -18 21 -15 55 1 24 -1 59 -6 78 -5 19 -11 52
-14 74 -4 21 -9 42 -12 47 -3 5 1 9 8 9 8 1 6 6 -6 15 -11 8 -15 15 -9 15 7 0
10 21 7 57 -2 32 -3 64 -4 71 0 6 -6 12 -14 12 -12 0 -18 15 -33 95 -2 11 -6
47 -9 80 -4 33 -10 65 -15 70 -4 6 -6 28 -5 49 2 21 -3 51 -11 66 -14 29 -23
70 -28 123 -1 16 -9 37 -19 48 -9 11 -14 24 -11 29 3 5 1 11 -4 14 -5 4 -8 14
-6 24 1 9 -3 23 -9 31 -8 11 -8 13 1 8 18 -11 28 39 14 71 -10 21 -14 23 -22
11 -7 -12 -9 -12 -9 1 0 8 -3 24 -6 36 -3 13 1 28 12 39 17 17 17 17 -6 10
-14 -4 -22 -4 -18 0 4 5 3 14 -3 21 -7 8 -6 14 2 20 8 5 9 3 4 -6 -5 -9 -4
-11 4 -6 6 4 8 13 4 19 -4 7 -9 21 -10 31 -2 11 -8 25 -14 33 -7 7 -7 13 -2
13 5 0 9 10 9 21 -1 12 6 24 14 26 12 4 12 3 1 -5 -9 -7 -10 -12 -2 -16 6 -4
11 -4 12 1 0 4 2 42 4 83 2 42 8 76 14 78 33 11 -1 20 -101 25 -61 4 -115 10
-118 14 -10 12 -44 333 -36 340 13 13 24 -19 31 -86 4 -36 9 -81 11 -100 3
-18 6 -59 8 -89 l4 -56 74 -1 c92 -2 118 3 112 20 -3 7 -14 11 -26 7 -13 -3
-19 -1 -15 5 4 6 0 14 -9 17 -13 5 -14 9 -4 21 10 12 9 16 -2 20 -24 9 -11 54
13 48 15 -4 19 0 19 20 0 14 -5 29 -11 33 -6 3 -8 17 -4 31 4 16 2 22 -4 18
-6 -3 -8 0 -5 8 2 7 11 14 19 14 8 0 12 -4 9 -9 -3 -4 0 -8 6 -8 7 0 10 15 8
43 -4 44 -8 46 -60 32 -24 -6 -26 -5 -21 16 4 13 8 18 10 12 7 -20 31 8 25 29
-3 12 1 18 13 18 14 0 16 6 12 30 -5 22 -2 32 11 39 15 9 15 12 2 21 -17 11
-58 12 -151 4 l-67 -7 4 -57 c3 -40 0 -61 -9 -69 -12 -9 -15 -2 -21 41 -3 29
-6 68 -6 86 l0 32 124 0 123 0 -3 103 c-4 128 -12 185 -27 194 -15 10 -40 53
-34 60 3 2 14 -8 26 -23 11 -15 21 -22 21 -16 0 14 -86 167 -131 234 -22 31
-39 60 -39 66 0 5 -41 49 -92 98 -90 87 -83 91 17 11 91 -73 136 -121 161
-169 23 -46 44 -62 44 -35 1 6 9 22 19 35 15 17 30 22 65 22 44 0 60 -12 34
-24 -10 -5 -10 -7 0 -12 16 -8 17 -177 0 -204 -10 -16 -10 -22 4 -32 11 -9 18
-38 22 -101 4 -48 14 -122 22 -165 15 -77 21 -122 49 -387 33 -315 77 -694
106 -915 16 -129 38 -302 48 -385 103 -836 136 -1078 225 -1685 25 -168 61
-420 81 -560 44 -313 56 -383 63 -376 3 3 11 -2 18 -12 7 -9 16 -13 20 -9 5 4
2 12 -6 17 -8 6 -10 10 -4 10 5 0 14 -4 20 -8 5 -5 20 -5 34 -1 25 9 25 9 -3
5 -21 -3 -25 0 -16 10 12 15 38 8 56 -15 11 -14 12 -14 13 2 0 14 7 18 28 17
45 -3 49 0 17 15 l-30 13 30 1 c27 1 75 -18 50 -19 -5 0 -1 -6 9 -12 16 -9 23
-7 38 12 10 12 18 17 18 11 0 -7 9 -9 26 -5 23 6 34 -1 81 -52 53 -58 54 -58
16 -9 -76 98 -71 90 -46 77 26 -14 46 -16 38 -3 -3 5 -1 12 5 16 5 3 10 0 10
-8 0 -10 7 -13 19 -10 13 3 18 10 14 20 -5 13 0 15 24 11 22 -3 30 -1 26 8 -3
9 3 11 24 7 54 -12 140 -6 166 11 17 11 27 13 32 7 3 -6 11 -11 16 -11 5 0 -6
14 -26 31 -52 46 -47 69 30 148 35 36 89 102 120 146 44 63 55 74 55 55 0 -14
-9 -40 -20 -58 -28 -45 -26 -55 20 -82 47 -30 50 -40 32 -103 -12 -42 -12 -52
2 -82 9 -18 16 -38 16 -44 0 -6 5 -11 10 -11 6 0 10 7 10 15 0 31 36 15 49
-21 l13 -36 56 6 c73 9 82 17 71 64 -12 51 -13 49 22 61 42 15 49 14 43 -4 -4
-8 -13 -15 -22 -15 -13 0 -14 -2 -3 -13 10 -10 15 -8 26 6 11 15 16 16 41 5
22 -10 28 -10 32 0 3 10 7 10 18 1 16 -13 137 -2 128 12 -5 9 12 12 46 10 10
0 11 1 3 5 -17 7 -17 21 0 21 6 0 26 3 42 7 88 17 90 17 76 7 -16 -10 -9 -13
69 -25 19 -3 49 -8 65 -11 17 -3 24 -2 18 1 -21 10 -14 26 10 23 12 -2 28 1
36 5 10 6 12 5 7 -2 -5 -9 0 -9 18 -2 14 5 26 6 26 2 0 -4 5 0 10 8 5 8 10 10
10 4 0 -7 15 -11 35 -11 19 1 35 4 35 8 0 4 16 5 35 2 20 -3 35 -1 35 4 0 5 6
10 13 11 91 8 156 9 151 1 -3 -5 0 -9 6 -9 7 0 10 -7 6 -15 -4 -11 1 -14 17
-11 12 2 40 -5 62 -16 22 -10 32 -13 23 -5 -13 10 -15 16 -6 25 7 7 18 12 25
12 7 0 13 5 13 10 0 6 15 10 33 11 23 0 27 2 14 8 -34 13 -18 25 39 28 31 2
73 5 93 8 20 2 42 4 49 4 7 1 10 6 6 13 -5 7 -3 8 7 2 18 -12 79 -14 79 -3 0
5 37 6 83 4 54 -3 77 -1 67 5 -14 9 159 6 248 -4 17 -2 32 0 32 6 0 5 12 7 28
4 15 -3 34 -2 42 3 16 11 15 12 -20 28 l-25 12 31 0 c18 1 47 7 65 15 30 13
36 13 53 -2 11 -10 16 -11 12 -4 -7 11 -4 12 10 4 19 -9 35 -9 83 3 20 5 22 8
10 16 -10 6 -10 9 -1 9 10 0 12 292 11 1447 0 797 -4 1457 -9 1468 -7 15 -9
10 -10 -25 -1 -25 -4 -38 -7 -30 -8 19 -35 40 -46 33 -4 -2 -5 -9 -1 -14 3 -5
9 -7 14 -4 5 3 11 1 14 -4 3 -5 -8 -7 -24 -6 -20 2 -30 -2 -30 -11 0 -8 -5
-23 -12 -33 -11 -18 -13 -18 -26 -3 -7 9 -11 12 -8 6 5 -11 -52 -50 -60 -41
-3 3 4 8 15 12 12 3 21 11 21 18 0 8 -3 8 -12 -1 -18 -18 -72 -16 -65 3 4 8 1
17 -5 21 -6 4 -9 3 -6 -2 3 -5 -4 -18 -15 -28 -17 -16 -19 -16 -14 -3 3 9 1
19 -5 23 -6 4 -8 3 -4 -4 3 -6 2 -13 -3 -16 -5 -4 -11 4 -13 16 -2 18 -10 23
-40 24 -21 2 -40 -1 -43 -7 -8 -12 -25 -12 -25 2 0 5 4 7 10 4 6 -3 10 1 10
10 0 9 -4 13 -10 10 -5 -3 -10 -1 -10 4 0 6 -7 11 -16 11 -14 0 -14 -3 -4 -15
11 -13 11 -18 1 -28 -10 -9 -12 -8 -9 8 2 11 -2 19 -9 18 -8 -2 -9 6 -4 25 12
47 8 57 -24 58 -17 1 -39 5 -49 10 -13 5 -21 3 -24 -4 -2 -7 -13 -12 -24 -12
-14 0 -18 5 -14 16 3 8 2 12 -4 9 -6 -3 -10 2 -10 12 0 10 -9 45 -19 78 -33
99 -49 158 -55 198 -3 21 -10 46 -15 56 -5 9 -15 46 -21 81 -6 36 -16 70 -21
76 -4 6 -11 35 -15 65 -3 30 -10 60 -14 68 -4 8 -4 27 0 43 8 27 6 32 -13 29
-5 -1 -5 8 -2 20 9 27 5 133 -4 124 -6 -7 -31 15 -31 27 0 6 9 8 21 5 18 -5
20 -2 17 35 -2 35 1 42 20 49 28 11 30 49 2 56 -11 3 -20 12 -20 19 0 8 -4 14
-10 14 -5 0 -10 -7 -10 -16 0 -12 -6 -15 -22 -10 -13 3 -47 6 -75 6 -63 0 -72
19 -10 21 76 2 -6 15 -118 18 -92 2 -120 -3 -65 -14 12 -2 25 -6 27 -8 5 -5
-79 -41 -89 -39 -5 1 -8 -9 -8 -23 0 -14 3 -25 8 -25 4 0 7 -14 8 -30 1 -17
-3 -30 -9 -30 -5 0 -3 -10 5 -22 34 -55 -18 -104 -99 -95 -23 2 -43 1 -43 -4
0 -5 9 -9 20 -9 14 0 20 -7 20 -24 0 -21 6 -24 55 -31 39 -4 55 -11 55 -21 0
-8 -4 -12 -10 -9 -5 3 -10 2 -10 -4 0 -5 9 -12 19 -16 15 -5 20 -17 23 -62 1
-31 -2 -69 -9 -84 -7 -17 -8 -31 -2 -34 21 -14 5 -20 -53 -23 -66 -4 -83 -14
-67 -44 8 -14 22 -18 72 -18 72 -1 161 -22 150 -35 -4 -5 0 -3 10 4 14 11 17
11 17 0 0 -11 2 -11 10 1 9 13 10 13 10 0 1 -9 5 -6 10 8 7 17 17 22 45 22 33
0 36 -2 30 -22 -4 -13 -11 -36 -15 -53 -41 -142 -55 -175 -67 -170 -8 2 -11 0
-8 -5 3 -5 -7 -12 -22 -16 -15 -4 -31 -12 -35 -18 -5 -8 -8 -7 -8 2 0 7 10 17
23 22 22 9 22 9 -3 9 -15 1 -31 6 -36 11 -7 7 -16 4 -29 -10 -10 -11 -15 -20
-10 -20 4 0 14 8 22 18 13 15 14 15 9 0 -3 -9 0 -19 7 -22 7 -2 4 -5 -5 -5
-20 -1 -25 -21 -6 -21 6 0 9 -2 6 -5 -3 -3 -16 -2 -29 3 -19 7 -27 4 -45 -18
-13 -15 -30 -27 -38 -27 -16 0 -12 11 5 13 22 3 23 5 9 14 -24 16 -40 11 -40
-11 0 -14 -5 -19 -14 -16 -11 4 -13 1 -9 -11 6 -14 4 -15 -9 -4 -12 10 -18 9
-28 -3 -11 -13 -10 -14 5 -9 13 5 16 4 11 -4 -4 -7 -17 -10 -32 -6 -18 5 -24
2 -24 -9 0 -9 -4 -19 -10 -22 -5 -3 -7 0 -4 8 3 8 0 18 -7 23 -7 4 -10 3 -6
-3 9 -15 -19 -37 -38 -29 -8 3 -14 0 -12 -5 1 -6 -14 -13 -32 -15 -19 -2 -39
-10 -43 -17 -5 -9 -8 -7 -8 4 0 9 -9 19 -20 22 -11 3 -18 2 -15 -3 7 -11 -37
-18 -60 -10 -10 3 -43 3 -74 -2 -66 -9 -89 -4 -91 20 0 9 -2 34 -3 55 -1 35
-17 55 -17 21 0 -8 -5 -12 -11 -8 -7 4 -10 -6 -8 -29 2 -20 0 -39 -4 -43 -4
-4 -7 6 -8 22 0 16 -3 38 -6 49 -14 52 -19 202 -18 569 1 301 4 401 13 404 7
2 12 8 12 13 0 6 -4 8 -9 5 -5 -3 -11 8 -13 25 -3 16 -2 32 2 34 3 2 3 34 -1
72 -5 37 -8 286 -8 553 l-1 485 39 78 c32 64 36 77 22 77 -10 0 -24 -11 -31
-25 -7 -14 -15 -23 -18 -20 -3 2 1 11 8 20 7 9 10 19 6 23 -4 4 -16 -4 -26
-18 -11 -14 -20 -19 -20 -12 0 6 -7 12 -15 12 -8 0 -15 5 -15 10 0 6 -15 10
-34 10 -28 0 -35 -4 -39 -22 l-4 -23 -2 23 c-1 16 -7 22 -23 21 -17 -1 -19 -2
-5 -6 9 -2 17 -9 17 -14 0 -21 -21 -49 -36 -49 -13 0 -15 8 -12 35 3 28 1 35
-13 35 -12 0 -16 -6 -12 -19 3 -10 0 -28 -6 -39 -10 -19 -18 -20 -114 -16
-118 6 -128 7 -144 17 -6 4 -13 2 -15 -4 -3 -9 -9 -9 -25 0 -12 6 -46 11 -77
11 -35 0 -60 5 -70 15 -18 18 -30 20 -20 3 5 -9 2 -9 -9 1 -16 13 -21 9 -18
-14 1 -5 -7 0 -17 11 -24 28 -82 42 -82 20 0 -20 -36 -21 -44 -1 -4 12 -24 15
-98 14 -51 -1 -85 -3 -75 -6 23 -6 22 -19 -3 -19 -11 0 -20 5 -20 11 0 6 -69
11 -195 12 -112 2 -195 -1 -195 -6 0 -5 -32 -7 -72 -5 -40 3 -385 7 -767 10
l-693 5 7 -43 c8 -49 -4 -46 -14 4 l-7 33 -507 3 -507 2 0 -3950z m1082 3883
c-2 -7 -12 -13 -21 -12 -10 0 -11 2 -3 6 6 2 12 19 13 36 1 30 1 31 8 7 4 -14
6 -31 3 -37z m-137 -5 c6 -37 35 -56 35 -23 0 8 5 15 10 15 15 0 12 -16 -5
-30 -8 -6 -23 -9 -35 -5 -16 5 -20 14 -19 53 1 51 4 48 14 -10z m42 10 c-3 -7
-5 -2 -5 12 0 14 2 19 5 13 2 -7 2 -19 0 -25z m-227 -4 c0 -8 -6 -14 -14 -14
-9 0 -12 7 -9 20 6 22 23 18 23 -6z m0 -53 c0 -34 -15 -49 -24 -25 -11 28 -6
54 9 54 10 0 15 -10 15 -29z m293 -6 c4 -8 2 -17 -3 -20 -6 -4 -10 3 -10 14 0
25 6 27 13 6z m37 -33 c0 -15 -2 -15 -10 -2 -13 20 -13 33 0 25 6 -3 10 -14
10 -23z m-89 -42 c5 0 9 -4 9 -10 0 -5 -7 -7 -15 -4 -9 4 -14 17 -14 33 2 23
2 24 6 4 2 -13 9 -23 14 -23z m52 20 c8 0 7 -3 -2 -9 -17 -11 -53 -2 -45 11 3
5 13 7 21 4 8 -3 20 -6 26 -6z m-283 -19 c0 -4 -7 -8 -15 -8 -8 0 -15 6 -15
13 0 8 6 11 15 8 8 -4 15 -9 15 -13z m330 -14 c0 -13 7 -33 16 -45 8 -12 10
-22 5 -22 -14 0 -39 52 -34 68 3 6 0 12 -7 12 -6 0 -8 5 -5 10 10 16 25 1 25
-23z m-323 -79 c-2 -13 -4 -3 -4 22 0 25 2 35 4 23 2 -13 2 -33 0 -45z m290
-68 c3 -3 3 6 0 20 -6 24 -5 24 9 5 15 -20 14 -37 -3 -42 -11 -4 -48 74 -57
122 -4 17 5 1 20 -35 14 -36 28 -67 31 -70z m-17 102 c0 -15 -2 -15 -10 -2
-13 20 -13 33 0 25 6 -3 10 -14 10 -23z m-307 -17 c4 -8 2 -17 -3 -20 -6 -4
-10 3 -10 14 0 25 6 27 13 6z m199 -18 c-2 -12 -8 -26 -12 -32 -4 -5 -11 -24
-14 -42 -4 -17 -14 -38 -23 -45 -15 -12 -16 -10 -9 17 24 97 38 134 50 129 8
-3 12 -14 8 -27z m-162 -62 c0 -13 -7 -25 -18 -27 -15 -4 -17 1 -14 34 3 32 7
37 18 27 8 -6 14 -22 14 -34z m220 -45 l-11 -25 6 25 c2 14 5 36 6 50 l2 25 4
-25 c2 -14 -1 -37 -7 -50z m166 24 c18 -5 75 -107 122 -219 3 -5 -26 31 -63
80 -37 50 -79 102 -93 118 -24 25 -24 27 -6 27 10 0 29 -3 40 -6z m-59 -46
c-3 -7 -5 -2 -5 12 0 14 2 19 5 13 2 -7 2 -19 0 -25z m-309 -43 l1 -20 -9 20
c-5 11 -8 31 -8 45 l0 25 8 -25 c4 -14 8 -34 8 -45z m-25 15 c3 -11 1 -20 -4
-20 -5 0 -9 9 -9 20 0 11 2 20 4 20 2 0 6 -9 9 -20z m220 4 c19 -7 23 -24 6
-24 -17 0 -49 20 -49 31 0 6 6 8 13 5 6 -3 20 -9 30 -12z m167 -198 c0 -5 -3
-7 -6 -3 -7 7 -44 166 -43 187 1 15 48 -166 49 -184z m-170 114 c-7 -17 -15
-28 -18 -26 -2 3 1 19 8 36 7 17 15 28 18 26 2 -3 -1 -19 -8 -36z m-208 -10
c3 -16 1 -30 -4 -30 -4 0 -8 5 -8 11 0 5 -4 7 -10 4 -6 -4 -10 5 -10 19 0 37
27 33 32 -4z m409 -77 c4 -19 3 -33 -2 -33 -12 0 -24 33 -33 85 l-6 40 17 -30
c9 -16 20 -45 24 -62z m-444 -25 c-2 -13 -4 -5 -4 17 -1 22 1 32 4 23 2 -10 2
-28 0 -40z m66 15 c6 -32 5 -33 -26 -32 -17 0 -26 3 -19 6 6 2 13 17 13 31 1
27 1 27 9 -3 l8 -30 1 34 c1 40 6 38 14 -6z m303 2 c-11 -8 -31 -15 -45 -15
-43 0 1 26 49 29 11 0 10 -4 -4 -14z m-342 -116 c-13 -14 -24 -37 -24 -51 0
-15 -3 -33 -6 -42 -8 -21 -34 -20 -34 1 0 21 -15 7 -24 -22 -5 -18 -2 -20 45
-16 28 1 55 -1 59 -5 5 -5 11 -67 15 -139 10 -204 17 -274 27 -290 3 -6 5 -34
4 -62 0 -29 3 -53 8 -53 5 0 3 -6 -3 -14 -9 -11 -8 -15 4 -20 8 -3 14 -9 13
-13 -3 -14 26 -217 72 -503 11 -69 20 -128 20 -132 0 -5 4 -8 9 -8 4 0 4 24 0
53 -5 28 -11 66 -13 82 -3 17 -16 113 -31 215 -14 102 -30 212 -36 244 -14 75
-9 79 112 96 50 6 88 14 86 17 -5 4 -132 -11 -184 -23 -13 -2 -23 0 -23 6 0 5
10 11 23 11 l22 2 -22 4 c-13 2 -23 11 -23 19 0 8 10 14 23 15 12 0 16 3 10 6
-7 2 -13 11 -13 18 0 9 20 16 58 21 31 4 61 7 66 5 5 -1 31 3 58 9 28 5 56 6
64 2 10 -6 -15 -13 -72 -22 -174 -25 -156 -34 32 -14 39 4 54 2 50 -5 -4 -6
-19 -11 -34 -12 -15 0 -43 -7 -62 -14 l-35 -13 32 -1 c34 -1 57 -22 32 -29 -8
-3 -29 -20 -46 -39 -33 -34 -45 -85 -23 -98 6 -3 10 1 10 10 0 9 5 13 10 10 6
-4 10 6 10 24 0 16 5 33 12 37 7 4 8 3 4 -4 -4 -7 -2 -12 3 -12 6 0 11 4 11
10 0 5 18 19 40 30 22 11 40 23 40 26 0 3 -4 2 -10 -1 -5 -3 -15 -3 -21 1 -17
10 10 24 46 24 26 -1 28 -2 14 -13 -9 -7 -16 -24 -15 -37 1 -14 -2 -31 -7 -37
-5 -7 -6 -13 -1 -13 5 0 -2 -7 -14 -16 -27 -19 -28 -31 -2 -39 21 -7 27 -39 9
-50 -7 -5 -5 -13 6 -25 16 -18 33 -17 87 5 12 5 16 2 13 -12 -2 -10 -4 -21 -4
-25 -1 -5 -12 -8 -26 -8 -14 0 -25 -4 -25 -9 0 -5 -10 -7 -22 -4 -13 3 -20 2
-16 -2 4 -5 3 -14 -2 -20 -13 -15 40 -11 70 5 14 7 20 7 20 0 0 -5 -4 -10 -9
-10 -4 0 -8 -8 -7 -18 1 -21 -48 -74 -60 -64 -4 4 -4 1 0 -6 5 -8 1 -19 -10
-27 -11 -8 -14 -15 -9 -15 6 0 3 -5 -5 -11 -11 -8 -8 -9 15 -4 17 4 32 11 33
16 2 5 10 9 17 9 10 0 11 -5 2 -25 -8 -17 -19 -25 -32 -23 -29 4 -46 -14 -27
-28 11 -8 12 -15 5 -29 -7 -12 -7 -29 0 -51 10 -32 11 -33 52 -27 40 5 42 4
43 -20 0 -28 -11 -35 -44 -32 -22 1 -23 -5 -10 -36 9 -19 76 -23 76 -4 0 20
-21 30 -31 14 -7 -11 -9 -10 -9 4 0 12 6 17 18 15 11 -2 27 4 38 12 15 11 16
11 7 0 -17 -19 -16 -30 3 -30 8 0 13 4 9 9 -3 5 0 13 6 17 17 10 29 -17 16
-38 -7 -10 -22 -18 -35 -18 -13 0 -20 -4 -17 -10 4 -6 3 -10 -2 -9 -4 1 -21
-3 -36 -9 -16 -7 -32 -10 -37 -7 -5 3 -11 1 -14 -4 -5 -8 29 -25 46 -22 4 0 5
-5 2 -13 -7 -19 22 -28 36 -11 7 8 10 21 6 30 -3 9 3 19 16 26 16 8 23 9 26 1
2 -6 10 -8 19 -5 10 4 14 2 10 -4 -4 -6 -1 -18 7 -26 8 -8 12 -18 8 -21 -3 -4
1 -4 11 0 9 3 15 10 12 15 -3 4 8 3 25 -2 16 -6 30 -15 30 -20 0 -5 7 -9 15
-9 8 0 16 -6 16 -12 1 -7 2 -17 4 -23 1 -5 3 -16 3 -23 1 -7 7 -10 12 -7 6 3
10 1 10 -4 0 -6 -6 -11 -12 -11 -10 0 -10 -2 0 -9 11 -7 12 -12 1 -29 -16 -25
-50 -36 -61 -19 -5 9 -11 6 -22 -8 -15 -20 -15 -20 -11 3 5 28 -11 29 -20 1
-5 -14 -12 -18 -23 -14 -9 3 -14 3 -10 0 3 -3 -4 -17 -16 -30 -11 -13 -23 -20
-26 -15 -3 5 -12 5 -20 0 -13 -8 -12 -10 3 -10 15 0 17 -5 12 -29 -4 -17 -2
-32 5 -36 8 -5 8 -10 0 -20 -8 -10 -7 -13 7 -11 34 2 26 -33 -11 -51 -30 -14
-34 -19 -23 -32 9 -12 9 -13 0 -7 -9 5 -13 0 -13 -17 0 -25 -23 -42 -41 -31
-5 3 -9 3 -9 -1 0 -3 12 -10 26 -15 24 -9 25 -14 20 -58 -2 -26 -7 -59 -11
-74 -4 -23 -2 -27 12 -22 15 5 16 4 3 -5 -21 -15 -30 -14 -30 3 0 8 -5 18 -10
21 -7 4 -9 -3 -6 -18 5 -31 -3 -41 -20 -26 -10 9 -15 7 -20 -5 -3 -9 -10 -13
-15 -10 -5 3 -9 -7 -9 -23 0 -15 -3 -38 -6 -51 -5 -19 -3 -21 12 -15 28 11 54
36 47 46 -4 6 -1 7 7 2 9 -6 12 -4 8 6 -3 8 3 23 13 33 16 16 19 17 19 4 0 -9
6 -19 13 -22 6 -4 2 -4 -11 -2 -17 3 -22 1 -19 -9 3 -7 1 -17 -4 -22 -6 -6 -1
-18 11 -31 12 -12 18 -22 15 -22 -14 0 -21 -2 -31 -11 -7 -5 -24 -8 -38 -5
-15 3 -24 1 -21 -5 4 -5 -1 -12 -9 -15 -19 -7 -21 -34 -3 -35 9 0 9 -2 -1 -6
-9 -4 -10 -8 -2 -18 9 -10 6 -16 -10 -25 -12 -6 -23 -10 -25 -8 -2 2 -17 95
-34 208 -17 113 -38 250 -46 304 -13 81 -13 101 -3 108 10 6 10 8 1 8 -16 0
-28 48 -52 214 -11 76 -23 141 -26 144 -10 10 -5 -43 14 -163 11 -66 36 -244
55 -395 20 -151 40 -308 46 -348 15 -111 14 -129 -12 -136 -19 -5 -21 -8 -8
-16 20 -13 39 -12 20 1 -12 9 -12 10 -1 7 23 -7 25 -28 2 -28 -11 0 -23 -5
-27 -12 -5 -8 0 -9 15 -5 13 3 20 3 17 0 -3 -4 1 -17 9 -29 13 -21 13 -23 0
-18 -8 4 -15 13 -15 21 0 11 -7 14 -21 10 -12 -3 -22 0 -26 9 -9 24 -42 16
-49 -12 -6 -21 -10 -24 -34 -19 -17 4 -31 2 -35 -5 -10 -16 -2 -21 34 -22 17
-1 28 -5 25 -10 -3 -4 0 -8 7 -8 7 0 5 -8 -7 -22 -10 -12 -14 -18 -7 -15 7 5
18 -5 27 -24 18 -36 19 -42 9 -36 -5 3 -18 1 -30 -4 -26 -9 -22 -41 11 -78
l21 -23 -22 6 c-22 7 -23 4 -23 -39 0 -40 3 -46 18 -41 25 8 43 -6 26 -21 -8
-8 -15 -9 -19 -3 -13 21 -20 8 -20 -37 0 -66 24 -69 55 -9 21 42 53 66 67 52
4 -3 -1 -14 -10 -24 -9 -10 -14 -27 -11 -39 3 -11 -1 -32 -10 -45 -16 -25 -10
-74 14 -103 7 -9 4 -20 -11 -39 -20 -26 -22 -47 -7 -105 1 -7 -3 -16 -11 -19
-9 -3 -11 0 -6 8 5 9 4 11 -3 6 -7 -4 -12 -13 -12 -19 0 -7 -9 -20 -20 -30
-12 -10 -17 -23 -13 -33 5 -13 3 -15 -7 -9 -9 5 -11 4 -6 -3 4 -7 14 -12 22
-12 8 0 14 -4 14 -10 0 -5 -8 -7 -17 -5 -10 3 -3 -2 16 -11 32 -15 35 -14 55
5 11 12 15 21 8 21 -6 0 -12 -5 -12 -12 0 -16 -29 23 -30 40 0 6 7 12 15 12 8
0 15 -6 15 -14 0 -8 8 -13 17 -12 14 1 18 -7 19 -34 0 -19 4 -43 9 -53 4 -10
4 -17 -1 -16 -37 6 -46 -21 -17 -53 15 -17 15 -20 -6 -49 -12 -17 -20 -36 -17
-44 4 -11 -5 -13 -32 -6 -1 1 2 9 7 19 14 25 22 74 12 67 -5 -2 -11 4 -14 16
-5 19 -7 20 -30 4 -24 -16 -26 -15 -32 7 -4 13 -14 32 -21 43 -13 18 -14 17
-14 -13 0 -18 4 -31 9 -28 5 3 8 -5 7 -19 0 -14 -5 -25 -9 -25 -5 0 -1 -7 8
-16 10 -10 14 -26 11 -39 -3 -12 -2 -25 2 -29 4 -4 8 -17 9 -29 1 -12 4 -50 7
-85 3 -34 10 -71 16 -82 6 -10 12 -44 14 -75 2 -31 7 -59 10 -62 3 -3 1 -14
-5 -24 -6 -13 -6 -19 1 -19 5 0 10 -9 10 -20 0 -11 -5 -20 -11 -20 -6 0 -9 -9
-6 -20 3 -13 0 -20 -9 -20 -8 0 -15 10 -15 23 -2 27 -5 51 -12 97 -3 19 -9 58
-12 85 -4 28 -9 61 -11 75 -3 14 -9 52 -15 84 -5 33 -12 62 -14 66 -2 3 -7 38
-10 76 -4 38 -9 72 -11 76 -2 3 -6 31 -9 62 -3 30 -10 77 -15 103 -6 26 -16
91 -24 143 -8 52 -17 111 -20 130 -3 19 -8 58 -11 85 -3 28 -10 69 -17 93 -9
35 -15 42 -35 42 -14 0 -21 -4 -18 -10 3 -5 13 -10 21 -10 10 0 14 -12 14 -41
0 -29 4 -38 13 -34 6 4 3 -1 -7 -9 -19 -15 -19 -16 -2 -16 17 0 17 -2 3 -23
-8 -12 -20 -21 -25 -20 -6 1 -15 -4 -22 -12 -10 -12 -8 -13 9 -10 12 2 26 7
31 10 6 4 5 -5 -2 -20 -7 -16 -14 -21 -19 -14 -5 9 -13 8 -28 -3 -22 -15 -22
-15 -1 -21 21 -6 28 -41 9 -53 -6 -3 -9 -19 -7 -35 4 -25 2 -29 -16 -24 -12 3
-15 2 -8 -1 14 -7 17 -34 3 -34 -21 0 -24 15 -40 270 -6 85 -13 230 -17 323
-6 146 -5 167 8 167 9 0 19 7 22 16 4 10 2 13 -7 8 -9 -5 -9 -4 -1 5 11 12 44
5 44 -9 0 -4 -7 -11 -16 -14 -8 -3 -12 -10 -9 -16 4 -6 10 -8 15 -5 5 3 8 -10
7 -30 -1 -19 -6 -35 -12 -35 -5 -1 1 -10 15 -22 16 -14 19 -19 8 -15 -10 4
-18 2 -18 -3 0 -6 2 -10 4 -10 2 0 12 -3 21 -6 17 -7 17 -8 0 116 -2 14 -5 37
-6 52 -2 16 -11 29 -21 31 -10 3 -16 1 -12 -4 3 -5 -2 -9 -11 -9 -8 0 -20 -10
-24 -22 -15 -38 -19 -6 -25 182 -8 204 -23 478 -35 600 -12 121 -12 34 -1
-155 5 -88 14 -297 20 -465 5 -168 12 -316 15 -329 2 -13 7 -114 10 -225 4
-110 8 -217 10 -236 2 -19 7 -95 11 -169 6 -104 5 -132 -5 -127 -6 4 -19 2
-27 -5 -8 -7 -27 -13 -42 -15 -45 -4 -48 -6 -22 -13 14 -4 37 -3 53 2 47 16
78 -24 35 -44 l-23 -10 23 5 c24 5 31 -9 8 -17 -18 -7 -50 28 -40 44 4 8 3 10
-5 5 -6 -4 -9 -16 -6 -27 5 -15 1 -19 -14 -19 -24 0 -27 10 -9 28 9 9 8 12 -5
12 -10 0 -17 -8 -17 -20 0 -11 -4 -20 -9 -20 -8 0 -8 -12 -2 -38 1 -2 8 4 17
12 16 17 34 21 34 8 0 -4 -10 -12 -23 -17 -12 -6 -21 -18 -21 -28 2 -14 -1
-15 -12 -6 -8 7 -14 7 -14 1 0 -5 7 -15 15 -22 16 -14 21 -35 5 -25 -5 3 -12
-7 -16 -22 -3 -15 -8 -35 -10 -44 -3 -11 4 -19 18 -23 22 -6 22 -7 4 -21 -23
-17 -14 -50 12 -41 16 6 16 5 0 -7 -10 -8 -15 -17 -11 -21 13 -13 11 -35 -3
-29 -8 3 -12 9 -9 13 3 5 -3 16 -12 26 -10 10 -18 22 -18 28 0 6 -8 10 -18 10
-9 -1 -17 5 -17 13 0 8 5 11 10 8 15 -10 12 52 -5 85 -19 37 -31 175 -16 185
8 4 10 -3 6 -24 -3 -18 -1 -31 5 -31 5 0 10 14 10 31 0 27 2 30 15 19 13 -11
15 -8 15 14 0 15 -4 25 -9 22 -4 -3 -16 3 -26 14 -17 19 -17 20 -1 20 9 0 14
5 11 10 -3 6 -15 10 -26 10 -10 0 -19 5 -19 11 0 6 6 9 14 6 11 -4 13 0 11 15
-3 11 -7 23 -11 27 -4 3 -4 -3 0 -14 5 -13 4 -16 -2 -10 -11 11 -14 40 -42
455 -11 162 -24 358 -30 435 -5 77 -14 239 -20 360 -6 121 -15 265 -20 320 -5
55 -12 200 -15 323 l-5 222 27 1 c16 1 35 1 43 0 8 0 10 2 4 5 -7 3 -10 13 -7
24 5 19 -10 22 -36 6 -10 -6 -12 -4 -8 10 3 11 15 55 27 99 23 87 38 119 47
98 5 -14 33 -18 33 -5 0 4 3 18 7 31 5 22 4 22 -18 12 -15 -8 -10 1 16 23 22
20 39 39 39 44 -8 40 -13 144 -8 156 3 8 12 12 19 10 10 -4 11 -12 5 -30 -8
-19 -6 -24 6 -24 8 0 13 4 9 9 -3 5 0 13 6 17 7 4 9 3 5 -4 -3 -6 -2 -13 3
-16 13 -8 42 4 35 15 -3 5 0 26 8 47 7 20 13 42 14 47 0 6 4 27 9 48 4 21 5
40 2 44 -3 3 -26 -16 -51 -42 l-46 -47 0 54 c0 46 21 145 36 170 6 10 34 -2
34 -14 0 -5 -4 -7 -8 -4 -8 4 -12 -14 -12 -54 -1 -38 3 -45 27 -45 23 0 23 1
21 125 -1 133 5 170 27 170 8 0 12 6 9 14 -3 7 15 37 40 66 26 30 46 64 46 77
0 13 4 23 9 23 5 0 7 -10 3 -22 -3 -14 -2 -19 6 -14 7 4 12 19 13 34 0 24 1
25 9 7 6 -15 1 -27 -16 -46z m318 -36 c-27 -19 -122 -29 -122 -14 0 6 3 11 8
11 57 4 117 11 121 15 2 3 7 5 10 4 3 0 -4 -7 -17 -16z m-74 -49 c6 -11 17
-15 31 -11 18 4 20 3 10 -9 -6 -7 -16 -11 -21 -7 -7 4 -9 -6 -6 -25 2 -17 1
-29 -4 -26 -4 3 -10 -6 -14 -20 -3 -13 -12 -27 -20 -30 -12 -5 -11 -12 8 -38
13 -18 24 -34 24 -36 1 -2 15 -5 30 -7 16 -2 31 -4 34 -5 3 -2 9 -2 15 0 5 1
1 -8 -10 -21 l-20 -22 25 8 c24 7 25 7 7 -12 -17 -20 -15 -53 4 -53 5 0 9 -4
9 -8 0 -5 -7 -9 -15 -9 -8 0 -15 4 -15 9 0 4 -9 8 -21 8 -12 0 -23 8 -26 20
-8 28 -30 25 -37 -6 -5 -19 -12 -25 -25 -21 -23 6 -53 -12 -33 -20 6 -2 10 -9
6 -14 -3 -5 2 -9 10 -9 9 0 16 3 16 8 0 4 25 7 55 7 78 0 68 -11 -17 -19 -40
-4 -87 -9 -104 -12 -23 -3 -33 0 -38 12 -3 9 -12 14 -20 11 -18 -7 -24 36 -31
200 -6 138 -7 136 76 149 24 4 51 10 59 15 24 13 48 10 58 -7z m114 -26 c-1
-9 5 -21 13 -28 19 -16 20 -31 1 -24 -25 10 -48 80 -23 71 6 -2 11 -11 9 -19z
m43 12 c3 -5 1 -10 -4 -10 -6 0 -11 5 -11 10 0 6 2 10 4 10 3 0 8 -4 11 -10z
m740 -51 c2 -2 5 -59 6 -127 3 -128 -5 -158 -35 -133 -9 7 -21 11 -28 9 -7 -3
-21 4 -31 16 -15 17 -18 37 -16 134 l1 114 49 -4 c27 -3 51 -7 54 -9z m144
-51 c51 -109 91 -202 91 -214 0 -8 6 -14 14 -14 15 0 46 -37 46 -54 0 -5 -48
-7 -116 -4 -102 5 -117 8 -130 26 -9 13 -22 19 -32 16 -10 -3 -9 -1 3 5 11 5
61 13 110 17 81 7 85 8 45 14 -52 7 -128 49 -110 60 9 6 7 11 -6 18 -13 7 -20
23 -21 49 -1 21 -4 50 -6 66 -2 15 0 27 6 27 5 0 4 7 -3 15 -11 13 -6 15 38
15 49 0 51 -1 71 -42z m-1469 -77 c0 -6 -4 -13 -10 -16 -5 -3 -10 1 -10 9 0 9
5 16 10 16 6 0 10 -4 10 -9z m971 -67 c13 -16 12 -16 -6 -6 -27 16 -65 49 -65
57 0 9 53 -30 71 -51z m-361 -28 c0 -3 -4 -8 -10 -11 -5 -3 -10 -1 -10 4 0 6
5 11 10 11 6 0 10 -2 10 -4z m350 -100 c0 -11 -19 -15 -25 -6 -3 5 1 10 9 10
9 0 16 -2 16 -4z m-462 -18 c-7 -19 -45 -21 -51 -4 -5 12 1 16 24 16 20 0 29
-4 27 -12z m39 -4 c-3 -3 -12 -4 -19 -1 -8 3 -5 6 6 6 11 1 17 -2 13 -5z
m-197 -14 c0 -5 -12 -10 -27 -10 -22 0 -25 2 -13 10 20 13 40 13 40 0z m1278
-18 c7 -9 11 -25 8 -34 -2 -10 0 -18 5 -18 5 0 18 -14 29 -32 15 -24 16 -34 7
-40 -9 -5 -7 -8 4 -8 13 0 22 -12 47 -62 2 -5 -57 -8 -131 -8 -135 0 -136 0
-156 26 -16 21 -18 30 -10 40 9 11 8 14 -3 14 -7 0 -21 13 -31 29 -17 29 -17
30 5 37 23 7 23 7 2 15 -27 9 -38 56 -15 62 9 3 63 3 121 0 85 -3 108 -7 118
-21z m-1068 -1 c0 -8 -47 -21 -76 -21 -23 0 -16 18 9 23 40 8 67 7 67 -2z
m-140 -21 c0 -5 -4 -10 -10 -10 -5 0 -10 5 -10 10 0 6 5 10 10 10 6 0 10 -4
10 -10z m420 -40 c0 -5 -5 -10 -11 -10 -5 0 -7 5 -4 10 3 6 8 10 11 10 2 0 4
-4 4 -10z m-287 -57 c-7 -2 -21 -2 -30 0 -10 3 -4 5 12 5 17 0 24 -2 18 -5z
m3867 -46 c0 -18 -4 -37 -9 -42 -13 -14 -1 -65 15 -65 8 0 14 -4 14 -10 0 -5
-6 -10 -14 -10 -8 0 -17 -7 -20 -16 -5 -13 -15 -14 -49 -9 -57 10 -63 17 -43
60 10 20 15 43 12 51 -3 8 -2 12 3 9 5 -3 13 0 17 6 4 6 -1 16 -10 21 -9 5
-16 16 -16 23 0 11 13 15 50 15 50 0 50 0 50 -33z m-3665 -17 c3 -6 -1 -7 -9
-4 -18 7 -21 14 -7 14 6 0 13 -4 16 -10z m134 -37 c-1 -33 -2 -35 -8 -13 -4
14 -6 31 -3 38 8 22 12 13 11 -25z m891 -22 c14 -27 13 -31 -7 -32 -14 -1 -14
-2 -3 -5 8 -3 23 -18 32 -34 16 -28 16 -30 0 -40 -14 -8 -11 -9 13 -10 23 0
35 -7 48 -29 13 -22 14 -30 5 -34 -8 -3 -6 -6 4 -6 19 -1 54 -58 43 -69 -9
-10 -220 -15 -261 -7 -31 5 -34 8 -28 33 4 15 12 30 18 34 6 5 2 8 -10 8 -26
0 -84 50 -66 57 21 8 13 23 -13 23 -24 0 -45 25 -45 54 0 12 11 16 48 16 34 0
43 3 32 10 -8 5 -34 10 -57 10 -32 0 -45 5 -53 20 -10 20 -8 20 139 20 138 0
151 -2 161 -19z m-1005 -1 c3 -5 1 -10 -4 -10 -6 0 -11 5 -11 10 0 6 2 10 4
10 3 0 8 -4 11 -10z m-12 -33 c3 -8 -1 -14 -8 -14 -7 0 -11 6 -8 14 3 7 6 13
8 13 2 0 5 -6 8 -13z m-105 -32 c-6 -14 -16 -21 -22 -17 -6 3 -20 6 -31 5 -12
-2 -7 3 13 12 17 8 32 20 32 26 0 5 4 8 10 4 6 -4 5 -15 -2 -30z m3782 -25 c0
-5 -4 -10 -10 -10 -5 0 -10 5 -10 10 0 6 5 10 10 10 6 0 10 -4 10 -10z m-33
-44 c-7 -18 12 -36 32 -29 13 4 14 3 2 -5 -9 -6 -22 -7 -31 -2 -13 7 -16 2
-18 -28 -3 -80 -14 -152 -23 -152 -5 0 -9 -9 -9 -20 0 -17 -7 -20 -44 -20 -49
0 -72 18 -35 27 22 6 22 6 2 14 -18 7 -20 15 -18 67 3 65 10 86 27 76 7 -5 8
-2 3 5 -4 7 -2 24 6 37 10 20 20 24 56 24 24 0 43 5 43 10 0 6 3 10 6 10 3 0
4 -6 1 -14z m-3297 -36 c0 -5 -5 -10 -11 -10 -5 0 -7 5 -4 10 3 6 8 10 11 10
2 0 4 -4 4 -10z m3333 -97 c10 -70 35 -192 43 -204 4 -7 7 -27 6 -46 -1 -20 3
-31 8 -28 6 3 9 -2 8 -12 -4 -29 12 -135 27 -180 17 -54 10 -87 -16 -72 -13 6
-19 22 -20 47 l-2 37 -6 -40 c-5 -31 -10 -40 -26 -40 -12 0 -21 9 -25 23 -6
26 -19 30 -31 11 -5 -9 -11 -5 -20 14 -6 14 -16 24 -20 21 -20 -12 -41 15 -44
55 -3 35 -1 41 17 41 18 0 18 1 4 16 -9 8 -16 21 -16 27 0 8 3 8 9 -1 6 -11
10 -10 15 4 4 10 1 21 -6 25 -9 6 -8 13 6 28 16 18 17 23 5 37 -11 14 -11 18
4 29 9 6 14 15 10 18 -3 4 1 7 11 7 15 0 16 8 13 57 -3 39 0 65 10 79 7 12 15
35 16 53 3 42 14 39 20 -6z m-3768 -13 c3 -5 1 -10 -4 -10 -6 0 -11 5 -11 10
0 6 2 10 4 10 3 0 8 -4 11 -10z m-31 -15 c-4 -8 -11 -12 -16 -9 -6 4 -5 10 3
15 19 12 19 11 13 -6z m1319 -12 c6 -16 20 -37 29 -47 17 -19 22 -31 19 -49
-1 -5 3 -6 8 -3 5 3 16 -9 25 -28 20 -43 20 -46 -1 -47 -10 0 -4 -5 14 -10 23
-7 31 -14 26 -24 -10 -27 -35 -33 -148 -34 -107 -2 -111 -1 -135 23 -13 15
-18 26 -11 26 7 0 -1 12 -18 26 -17 14 -31 32 -31 39 0 8 -11 25 -25 39 -42
42 -34 56 35 56 33 0 60 4 60 10 0 6 -32 10 -75 10 -41 0 -75 2 -75 4 0 2 -3
11 -6 20 -5 14 11 16 145 16 l151 0 13 -27z m-1289 -82 c3 -5 -1 -11 -9 -15
-9 -3 -15 0 -15 9 0 16 16 20 24 6z m-44 -51 c0 -5 -2 -10 -4 -10 -3 0 -8 5
-11 10 -3 6 -1 10 4 10 6 0 11 -4 11 -10z m134 -17 c3 -7 -5 -17 -17 -23 -18
-9 -19 -8 -5 2 15 11 15 13 1 23 -14 11 -14 12 0 12 9 0 18 -6 21 -14z m-56
-44 c-8 -6 -14 -3 -16 6 -2 8 -10 15 -18 15 -8 0 -14 5 -14 11 0 6 8 8 19 4
11 -3 23 0 28 7 6 9 9 6 11 -11 2 -13 -2 -28 -10 -32z m2391 -50 c117 -38 169
-74 186 -129 6 -21 -1 -17 -39 22 -25 26 -46 45 -46 43 0 -2 -16 3 -36 11 -24
10 -39 12 -43 5 -4 -6 -12 -6 -20 -1 -25 15 -86 -21 -77 -46 8 -20 -11 -36
-39 -32 -27 3 -28 4 -12 20 9 9 17 21 17 27 0 5 9 17 21 25 12 8 18 19 14 26
-8 12 12 40 28 40 6 0 27 -5 46 -11z m-945 -29 c7 -7 -23 -11 -84 -12 l-95 -2
80 -3 c100 -4 135 -11 115 -23 -22 -14 -302 -10 -319 3 -11 10 -1 13 50 18
l64 6 -67 1 c-37 1 -69 6 -73 12 -11 18 311 18 329 0z m-1094 -20 c0 -5 -8
-10 -17 -10 -15 0 -16 2 -3 10 19 12 20 12 20 0z m-203 -16 c-3 -3 -12 -4 -19
-1 -8 3 -5 6 6 6 11 1 17 -2 13 -5z m-17 -18 c0 -3 -4 -8 -10 -11 -5 -3 -10
-1 -10 4 0 6 5 11 10 11 6 0 10 -2 10 -4z m1316 -31 c19 -26 18 -33 -8 -38
-13 -2 -5 -5 18 -6 33 -1 45 -6 59 -27 9 -14 15 -28 12 -30 -2 -3 9 -19 24
-35 16 -17 29 -35 29 -40 0 -5 -35 -9 -77 -10 -43 0 -104 -3 -136 -5 -47 -3
-61 0 -77 16 -31 31 -25 48 18 53 31 3 29 4 -14 5 -44 2 -54 6 -69 28 -14 21
-15 28 -4 35 10 6 6 11 -14 18 -17 7 -27 18 -27 30 0 23 21 27 158 26 81 0 96
-3 108 -20z m2401 3 c-3 -8 -6 -5 -6 6 -1 11 2 17 5 13 3 -3 4 -12 1 -19z
m-1545 -72 c-3 -5 2 -7 10 -3 12 4 14 1 11 -14 -3 -10 -9 -17 -13 -14 -5 3
-11 -4 -15 -15 -3 -11 -13 -20 -22 -20 -9 0 -31 -11 -50 -26 -18 -14 -33 -23
-33 -20 0 17 25 56 36 56 12 0 26 28 21 42 -1 3 9 18 23 33 22 23 25 24 31 8
4 -10 4 -22 1 -27z m293 4 c3 -5 2 -10 -4 -10 -5 0 -13 5 -16 10 -3 6 -2 10 4
10 5 0 13 -4 16 -10z m930 -30 c-3 -5 -12 -10 -18 -10 -7 0 -6 4 3 10 19 12
23 12 15 0z m85 -14 c0 -3 -4 -8 -10 -11 -5 -3 -10 -1 -10 4 0 6 5 11 10 11 6
0 10 -2 10 -4z m-1283 -13 c-4 -3 -2 -12 4 -19 12 -15 -5 -29 -38 -29 -30 -1
-29 4 4 32 23 21 46 33 30 16z m-2081 -35 c-1 -7 -5 -18 -9 -25 -4 -6 -1 -14
5 -16 7 -3 4 -6 -8 -6 -24 -1 -27 35 -3 50 18 11 18 11 15 -3z m2404 -23 c-7
-9 -15 -13 -19 -10 -3 3 1 10 9 15 21 14 24 12 10 -5z m-1032 -48 c3 -16 -7
-17 -150 -15 -137 3 -153 5 -156 21 -3 16 7 17 150 15 137 -3 153 -5 156 -21z
m2125 11 c3 -10 7 -10 19 0 9 7 19 9 22 4 3 -5 16 -7 29 -5 25 5 37 -15 37
-60 0 -10 18 -66 40 -124 45 -119 46 -131 25 -159 -14 -18 -14 -17 -5 11 15
40 -4 79 -32 64 -21 -11 -38 -4 -38 17 0 18 -24 18 -40 -1 -15 -18 -42 -19
-58 -3 -10 10 -15 5 -24 -20 -14 -35 -23 -40 -32 -16 -3 8 -2 12 4 9 6 -3 10
-2 10 3 0 20 -29 21 -35 1 -7 -20 -25 -27 -25 -9 0 6 -6 10 -14 10 -26 0 -27
17 -7 92 11 40 23 95 27 121 6 46 32 76 54 62 5 -3 11 -1 15 5 9 14 22 13 28
-2z m-1067 -36 c-3 -5 -17 -12 -31 -14 -13 -3 -22 -1 -19 3 3 5 14 9 25 9 10
0 19 5 19 12 0 6 3 9 6 5 3 -3 3 -10 0 -15z m190 -19 c-4 -9 -1 -22 5 -30 7
-7 9 -16 5 -20 -3 -3 -6 -1 -6 6 0 7 -5 9 -10 6 -6 -4 -8 -11 -5 -16 4 -5 2
-9 -3 -9 -17 0 -20 25 -6 45 21 29 17 41 -5 14 -11 -13 -23 -20 -27 -16 -5 4
-2 12 6 17 8 6 11 10 5 11 -5 0 -1 4 10 8 25 11 38 4 31 -16z m96 5 c6 -10 8
-10 8 0 0 6 5 12 11 12 8 0 9 -4 0 -13 -6 -8 -7 -17 -3 -21 4 -5 -10 2 -30 13
l-36 22 -7 -21 c-6 -20 -25 -28 -25 -10 0 6 6 10 13 10 8 0 8 3 -2 9 -11 7
-10 10 5 13 28 7 56 0 66 -14z m-2875 -23 c-10 -12 -14 -11 -24 3 -10 12 -10
17 -1 23 19 12 40 -10 25 -26z m1558 19 c10 -10 15 -27 12 -40 -3 -16 1 -25
13 -29 10 -3 25 -14 35 -25 17 -19 17 -20 -6 -29 l-24 -10 27 0 c35 -1 70 -47
47 -62 -8 -5 -72 -8 -143 -7 -112 3 -130 5 -140 21 -9 14 -7 21 6 31 21 15 13
26 -18 26 -23 0 -49 31 -37 44 3 3 18 6 32 7 23 1 22 2 -9 12 -19 6 -46 21
-59 33 l-24 22 34 6 c19 3 54 7 79 8 156 9 157 9 175 -8z m2385 -13 c0 -10 -7
-18 -15 -18 -10 0 -12 4 -5 12 6 7 5 16 -3 24 -9 10 -8 11 6 6 9 -4 17 -15 17
-24z m-3857 -16 c-3 -9 -8 -14 -10 -11 -3 3 -2 9 2 15 9 16 15 13 8 -4z m2432
-5 c3 -5 1 -10 -4 -10 -6 0 -11 5 -11 10 0 6 2 10 4 10 3 0 8 -4 11 -10z
m-2473 -32 c-7 -7 -12 -8 -12 -2 0 14 12 26 19 19 2 -3 -1 -11 -7 -17z m4066
7 c4 -5 2 -5 -5 -1 -6 3 -15 1 -19 -5 -4 -8 -9 -7 -15 2 -7 11 -9 11 -9 1 0
-7 -4 -10 -10 -7 -5 3 -10 10 -10 16 0 11 57 6 68 -6z m-4093 -16 c-6 -29 -15
-37 -15 -12 0 17 8 33 16 33 2 0 1 -10 -1 -21z m2100 -30 c-7 -11 -35 -12 -35
-1 0 4 9 8 20 9 11 1 18 -2 15 -8z m-2065 -39 c0 -5 -2 -10 -4 -10 -3 0 -8 5
-11 10 -3 6 -1 10 4 10 6 0 11 -4 11 -10z m2080 -19 c12 -31 8 -39 -43 -80
-15 -12 -17 -12 -12 2 6 13 2 14 -27 3 -18 -6 -39 -15 -45 -19 -8 -5 -13 -4
-13 2 0 6 5 11 11 11 5 0 8 4 5 9 -4 5 13 23 36 40 23 17 35 31 27 31 -10 1
-9 5 5 15 29 22 42 18 56 -14z m42 -82 c5 -28 2 -38 -18 -60 -14 -15 -36 -26
-50 -26 -14 0 -34 -10 -45 -22 -11 -11 -25 -21 -30 -21 -6 0 -1 -9 12 -20 l24
-19 -43 -1 c-51 0 -120 -31 -154 -68 -28 -31 -78 -139 -78 -170 0 -41 -8 -47
-60 -44 -38 3 -52 9 -64 27 -16 24 -15 24 27 29 88 12 90 13 16 15 -60 1 -78
4 -83 17 -11 28 4 34 84 34 43 0 82 5 85 10 4 6 -32 10 -99 10 -115 0 -147 17
-43 23 l62 3 -67 2 c-101 3 -84 22 20 22 109 0 162 9 162 26 0 11 -27 12 -140
7 l-140 -5 0 26 c0 18 -12 38 -37 61 -21 19 -35 35 -31 35 4 0 -4 11 -17 25
-14 13 -25 28 -25 33 0 14 64 22 186 22 106 0 112 -1 134 -26 21 -21 22 -27
10 -34 -14 -9 -9 -12 16 -9 4 0 13 -12 20 -27 11 -20 12 -29 3 -34 -8 -6 -8
-9 1 -15 6 -4 14 -4 17 -1 3 3 12 1 19 -5 9 -8 29 0 75 31 81 54 115 71 123
62 4 -4 12 2 18 12 8 15 12 16 19 5 6 -11 16 -6 44 21 19 18 35 42 35 52 0 19
-19 26 -21 8 -1 -5 -3 -14 -4 -20 -1 -5 -3 -14 -4 -19 -1 -9 -41 -3 -41 6 0
10 56 62 65 59 5 -1 13 -18 17 -37z m-2162 6 c0 -9 -6 -12 -16 -8 -13 5 -13 7
-2 14 17 11 18 11 18 -6z m1715 4 c4 -6 5 -12 3 -15 -3 -2 -73 -7 -156 -10
-108 -4 -152 -3 -152 5 0 6 -7 11 -15 11 -8 0 -15 5 -15 10 0 14 327 13 335
-1z m1782 -11 c-3 -8 -6 -5 -6 6 -1 11 2 17 5 13 3 -3 4 -12 1 -19z m-3510
-93 c0 -8 -4 -15 -9 -15 -10 0 -11 14 -1 23 9 10 10 9 10 -8z m2548 -69 c13
-9 29 -26 36 -37 11 -21 10 -21 -12 -5 -26 18 -92 40 -124 41 -13 0 -21 8 -23
22 -3 21 -2 21 48 8 28 -7 62 -21 75 -29z m-110 -48 c7 -7 1 -9 -17 -4 -17 4
-28 1 -31 -7 -3 -6 -4 -2 -4 10 1 18 6 22 22 17 11 -3 25 -11 30 -16z m25
-120 c0 -16 -65 29 -68 48 -3 13 5 10 32 -11 20 -15 36 -32 36 -37z m-2560 14
c34 -4 47 -19 31 -34 -11 -11 -13 -10 -7 2 4 8 1 6 -6 -4 -29 -42 -49 -57 -70
-50 -15 4 -19 3 -14 -7 4 -8 0 -5 -8 5 -9 11 -16 31 -16 44 0 22 2 23 17 11
13 -11 15 -11 9 -1 -9 15 24 58 33 45 3 -5 17 -9 31 -11z m3840 -42 c0 -10
-22 -15 -50 -11 -8 1 -39 1 -68 1 -34 0 -51 3 -47 10 8 13 165 13 165 0z
m-1201 -124 c0 -18 -3 -16 -14 9 -8 17 -14 41 -14 55 0 23 1 22 14 -9 8 -18
15 -43 14 -55z m-172 -4 c17 -42 10 -41 -16 4 -12 20 -16 34 -9 32 7 -3 18
-19 25 -36z m-590 -49 c-2 -16 -4 -5 -4 22 0 28 2 40 4 28 2 -13 2 -35 0 -50z
m749 -11 c-15 -15 -15 -15 -4 10 7 15 15 23 17 17 2 -6 -4 -18 -13 -27z m-701
-371 c0 -44 -3 -74 -7 -68 -10 16 -10 147 0 147 4 0 7 -36 7 -79z m165 -43 c0
-25 -16 -22 -24 5 -11 41 -7 54 9 33 8 -11 15 -28 15 -38z m1000 -8 c-6 -11
-13 -20 -16 -20 -2 0 0 9 6 20 6 11 13 20 16 20 2 0 0 -9 -6 -20z m36 -16 c-3
-8 0 -14 6 -14 6 0 8 -3 5 -6 -4 -4 -13 -2 -20 4 -8 7 -17 8 -22 4 -4 -4 -2 3
4 16 13 24 36 20 27 -4z m1334 6 c0 -11 -2 -20 -4 -20 -2 0 -6 9 -9 20 -3 11
-1 20 4 20 5 0 9 -9 9 -20z m-1170 -20 c0 -5 -4 -10 -10 -10 -5 0 -10 5 -10
10 0 6 5 10 10 10 6 0 10 -4 10 -10z m51 -15 c8 30 8 30 6 2 -2 -33 -22 -37
-23 -5 -1 20 0 20 4 -2 5 -25 5 -25 13 5z m110 1 c5 3 9 0 9 -6 0 -15 -23 -7
-26 8 -1 7 0 8 3 2 2 -5 9 -8 14 -4z m-215 -31 c0 -27 -11 -33 -19 -11 -4 10
9 36 18 36 1 0 1 -11 1 -25z m61 -18 c-11 -4 -22 -5 -25 -2 -3 3 -1 5 5 5 6 0
14 10 17 23 7 21 7 21 15 2 6 -15 3 -22 -12 -28z m258 23 c3 -5 1 -10 -4 -10
-6 0 -11 5 -11 10 0 6 2 10 4 10 3 0 8 -4 11 -10z m-165 -10 c0 -5 -2 -10 -4
-10 -3 0 -8 5 -11 10 -3 6 -1 10 4 10 6 0 11 -4 11 -10z m50 6 c0 -3 -4 -8
-10 -11 -5 -3 -10 -1 -10 4 0 6 5 11 10 11 6 0 10 -2 10 -4z m60 -6 c0 -5 -7
-10 -16 -10 -8 0 -12 5 -9 10 3 6 10 10 16 10 5 0 9 -4 9 -10z m27 -26 c-3 -3
-12 -4 -19 -1 -8 3 -5 6 6 6 11 1 17 -2 13 -5z m-230 -10 c-3 -3 -12 -4 -19
-1 -8 3 -5 6 6 6 11 1 17 -2 13 -5z m-66 -21 c12 -16 12 -17 -1 -6 -8 6 -26
13 -40 16 l-25 4 26 2 c15 0 33 -7 40 -16z m410 0 c13 -16 12 -17 -2 -5 -17
13 -40 13 -50 0 -3 -5 -14 -1 -25 7 -18 13 -16 14 22 15 28 0 46 -6 55 -17z
m-3746 -41 c-3 -3 -11 0 -18 7 -9 10 -8 11 6 5 10 -3 15 -9 12 -12z m2049
-281 c2 -18 8 -36 13 -40 23 -15 25 -100 2 -85 -5 3 -9 -2 -9 -11 0 -9 -5 -13
-10 -10 -6 4 -10 35 -9 69 1 36 -4 70 -11 82 -9 15 -10 39 -4 90 l8 69 8 -65
c4 -36 9 -80 12 -99z m-2054 69 c0 -5 -2 -10 -4 -10 -3 0 -8 5 -11 10 -3 6 -1
10 4 10 6 0 11 -4 11 -10z m2870 -198 c-14 -2 -37 1 -50 7 -24 9 -24 10 8 10
17 1 32 6 32 11 0 6 8 2 18 -7 17 -17 16 -18 -8 -21z m-3340 -57 c0 -29 -5
-45 -15 -49 -12 -4 -13 -2 -6 12 6 11 6 24 0 35 -12 20 -2 60 12 52 5 -4 9
-26 9 -50z m420 13 c0 -4 -5 -8 -11 -8 -5 0 -7 5 -3 12 5 8 2 9 -9 5 -17 -6
-24 13 -10 27 7 7 33 -21 33 -36z m-350 -24 c0 -8 -5 -12 -10 -9 -6 4 -8 11
-5 16 9 14 15 11 15 -7z m-270 -14 c0 -5 -2 -10 -4 -10 -3 0 -8 5 -11 10 -3 6
-1 10 4 10 6 0 11 -4 11 -10z m588 -7 c-2 -10 -11 -19 -21 -21 -18 -4 -20 17
-2 30 17 13 27 9 23 -9z m-391 -45 c-3 -8 -6 -5 -6 6 -1 11 2 17 5 13 3 -3 4
-12 1 -19z m-188 -82 c1 -11 -2 -16 -6 -13 -3 4 -8 24 -9 45 -2 31 -1 33 6 12
4 -14 8 -34 9 -44z m81 -40 c0 -11 -19 -15 -25 -6 -3 5 1 10 9 10 9 0 16 -2
16 -4z m-76 -30 c-3 -13 -1 -27 5 -30 14 -9 14 -86 0 -86 -5 0 -7 5 -4 10 3 6
2 10 -4 10 -5 0 -9 8 -9 18 1 9 -2 36 -6 60 -7 35 -5 42 8 42 12 0 15 -6 10
-24z m33 -58 c-3 -8 -6 -5 -6 6 -1 11 2 17 5 13 3 -3 4 -12 1 -19z m3113 -238
c4 -28 3 -50 -2 -50 -5 0 -7 -16 -5 -35 3 -27 -1 -41 -21 -60 -14 -14 -27 -23
-29 -21 -6 6 18 88 31 104 5 7 8 39 7 70 -3 68 10 62 19 -8z m-299 -232 c-6
-16 -8 -34 -5 -41 3 -8 -2 -27 -11 -43 -20 -38 -20 -11 0 71 8 33 15 89 17
125 l2 65 3 -74 c2 -41 -1 -87 -6 -103z m-2751 -124 c0 -8 -4 -12 -10 -9 -5 3
-10 10 -10 16 0 5 5 9 10 9 6 0 10 -7 10 -16z m2547 -10 c-3 -3 -12 -4 -19 -1
-8 3 -5 6 6 6 11 1 17 -2 13 -5z m2013 -197 c0 -7 -9 -13 -21 -13 -19 0 -19 1
-3 13 10 7 19 13 21 13 2 0 3 -6 3 -13z m30 -7 c0 -5 -2 -10 -4 -10 -3 0 -8 5
-11 10 -3 6 -1 10 4 10 6 0 11 -4 11 -10z m-549 -60 c5 0 9 -9 9 -20 0 -13 -5
-18 -15 -14 -8 4 -15 12 -15 19 0 7 -3 15 -7 18 -5 2 -2 2 5 0 8 -1 18 -3 23
-3z m-800 -88 c-7 -2 -18 1 -23 6 -8 8 -4 9 13 5 13 -4 18 -8 10 -11z m-142
-469 c12 -18 18 -33 12 -33 -10 0 -41 50 -41 66 0 8 0 9 29 -33z m-2609 -34
c0 -6 -4 -7 -10 -4 -5 3 -10 11 -10 16 0 6 5 7 10 4 6 -3 10 -11 10 -16z m-80
-44 c0 -5 -5 -3 -10 5 -5 8 -10 20 -10 25 0 6 5 3 10 -5 5 -8 10 -19 10 -25z
m2958 0 c96 -16 222 -63 222 -84 0 -6 -9 -15 -20 -21 -32 -17 -310 83 -310
112 0 10 -6 11 108 -7z m845 -185 c37 -16 76 -30 87 -30 11 0 20 -4 20 -10 0
-32 -144 12 -179 54 -19 23 -2 20 72 -14z m-2433 -307 c0 -25 -2 -44 -4 -42
-7 7 -15 72 -10 81 10 17 14 7 14 -39z m1700 -24 c14 -11 19 -17 11 -13 -11 5
-13 2 -9 -14 4 -15 2 -22 -9 -22 -8 0 -27 -12 -42 -27 -17 -18 -40 -29 -62
-31 -48 -3 -61 -6 -83 -18 -16 -10 -16 -14 -5 -32 8 -12 24 -22 36 -22 24 0
33 -19 11 -21 -7 -1 -20 -2 -28 -3 -8 0 -14 -7 -12 -13 1 -7 -2 -13 -8 -13 -5
0 -10 -4 -10 -10 0 -5 7 -10 16 -10 8 0 13 -4 10 -9 -7 -11 53 -61 73 -61 11
0 9 6 -9 20 l-25 20 26 0 c18 0 32 -9 43 -25 16 -24 16 -25 -6 -24 -13 0 -36
-3 -53 -9 l-30 -9 28 -8 c15 -4 27 -11 27 -16 0 -5 14 -9 30 -9 17 0 30 -4 30
-10 0 -5 -4 -10 -9 -10 -5 0 -7 -9 -4 -20 4 -14 0 -20 -10 -20 -9 0 -21 -9
-27 -19 -6 -12 -17 -17 -28 -14 -12 3 -19 -1 -19 -11 0 -9 7 -16 14 -16 8 0
11 -4 8 -10 -3 -5 2 -21 11 -35 9 -14 14 -28 12 -31 -3 -2 -55 58 -116 134
-60 76 -141 174 -178 218 -109 126 -147 174 -142 179 5 5 99 19 243 35 50 6
113 14 140 18 99 15 129 13 155 -9z m-102 -167 c6 -18 -15 -14 -22 4 -4 10 -1
14 6 12 6 -2 14 -10 16 -16z m-1757 -99 c-11 -5 -11 -7 0 -14 11 -7 10 -9 -3
-9 -18 0 -23 11 -11 23 3 4 11 7 17 6 6 0 5 -3 -3 -6z m129 -47 c0 -2 -7 -6
-15 -10 -8 -3 -15 -1 -15 4 0 6 7 10 15 10 8 0 15 -2 15 -4z m-73 -20 c0 -8
-8 -11 -19 -8 -10 2 -15 8 -12 13 8 14 31 11 31 -5z m173 2 c0 -4 -3 -8 -7 -9
-57 -6 -56 -6 -40 6 19 13 47 16 47 3z m-410 -8 c0 -5 -2 -10 -4 -10 -3 0 -8
5 -11 10 -3 6 -1 10 4 10 6 0 11 -4 11 -10z m434 -55 c-4 -8 -11 -12 -16 -9
-6 4 -5 10 3 15 19 12 19 11 13 -6z m1656 -20 c-7 -9 -15 -13 -19 -10 -3 3 1
10 9 15 21 14 24 12 10 -5z m-2151 -18 c12 -15 12 -17 -3 -11 -9 3 -16 13 -16
22 0 8 1 13 3 11 1 -2 9 -12 16 -22z m286 3 c18 15 30 7 22 -14 -4 -9 -13 -13
-22 -10 -8 4 -15 1 -15 -6 0 -8 12 -10 35 -7 19 3 35 1 35 -3 0 -9 73 -42 87
-38 15 5 96 -79 83 -87 -16 -10 -2 -25 23 -24 12 0 16 3 10 6 -14 5 -18 24 -5
21 4 -1 22 2 40 6 21 5 38 4 45 -3 7 -7 16 -7 29 0 31 17 20 2 -15 -20 -18
-11 -45 -22 -61 -25 -31 -6 -49 -24 -39 -39 3 -5 -3 -7 -13 -5 -12 2 -19 12
-19 25 0 30 -10 36 -11 7 -1 -13 -8 -31 -14 -39 -11 -14 -15 -14 -31 1 -14 13
-16 20 -8 30 12 15 -21 37 -61 40 -14 1 -33 2 -43 3 -13 1 -17 8 -15 23 2 16
-5 26 -25 36 -18 9 -26 19 -23 28 3 9 -1 14 -14 14 -11 0 -20 7 -20 15 0 8 -9
15 -19 15 -15 0 -19 7 -19 30 1 30 17 32 19 2 0 -11 2 -12 6 -4 2 6 9 10 14 6
5 -3 9 0 9 5 0 6 -5 11 -11 11 -5 0 -7 5 -3 12 5 8 11 6 20 -7 11 -15 16 -16
29 -5z m1470 -20 c-10 -16 -35 8 -28 25 4 12 7 12 20 0 8 -8 11 -20 8 -25z
m439 25 c-4 -8 -8 -15 -10 -15 -2 0 -4 7 -4 15 0 8 4 15 10 15 5 0 7 -7 4 -15z
m-2144 -9 c0 -3 -4 -8 -10 -11 -5 -3 -10 -1 -10 4 0 6 5 11 10 11 6 0 10 -2
10 -4z m2055 -16 c8 -13 -5 -13 -25 0 -13 8 -13 10 2 10 9 0 20 -4 23 -10z
m-172 -125 c-3 -9 -8 -14 -10 -11 -3 3 -2 9 2 15 9 16 15 13 8 -4z m-1242 -47
c1 -7 1 -17 0 -21 -1 -5 3 -6 8 -3 5 4 12 2 16 -4 4 -6 11 -8 16 -5 5 4 9 1 9
-4 0 -16 -49 -13 -65 3 -8 7 -11 16 -8 20 4 3 0 6 -8 6 -11 0 -11 2 1 10 20
13 30 12 31 -2z m452 -45 c-6 -15 -19 -17 -27 -4 -7 11 0 18 18 18 8 0 12 -6
9 -14z m287 7 c0 -5 -4 -10 -10 -10 -5 0 -10 5 -10 10 0 6 5 10 10 10 6 0 10
-4 10 -10z m104 -8 c3 -5 -1 -9 -9 -9 -8 0 -12 4 -9 9 3 4 7 8 9 8 2 0 6 -4 9
-8z m-934 -23 c0 -11 -4 -17 -10 -14 -5 3 -10 13 -10 21 0 8 5 14 10 14 6 0
10 -9 10 -21z m-25 -27 c-3 -3 -11 0 -18 7 -9 10 -8 11 6 5 10 -3 15 -9 12
-12z m1585 -54 c0 -14 -19 1 -31 25 -12 22 -12 22 10 3 11 -11 21 -23 21 -28z
m54 -64 c5 -14 4 -15 -9 -4 -17 14 -19 20 -6 20 5 0 12 -7 15 -16z m214 -9
c-3 -3 -9 2 -12 12 -6 14 -5 15 5 6 7 -7 10 -15 7 -18z m-98 -125 c0 -5 -2
-10 -4 -10 -3 0 -8 5 -11 10 -3 6 -1 10 4 10 6 0 11 -4 11 -10z"/>
<path d="M758 6593 c7 -3 16 -2 19 1 4 3 -2 6 -13 5 -11 0 -14 -3 -6 -6z"/>
<path d="M778 6513 c7 -3 16 -2 19 1 4 3 -2 6 -13 5 -11 0 -14 -3 -6 -6z"/>
<path d="M973 6503 c9 -2 23 -2 30 0 6 3 -1 5 -18 5 -16 0 -22 -2 -12 -5z"/>
<path d="M550 6470 c-13 -9 -13 -10 0 -10 8 0 22 5 30 10 13 9 13 10 0 10 -8
0 -22 -5 -30 -10z"/>
<path d="M650 6470 c0 -5 4 -10 9 -10 6 0 13 5 16 10 3 6 -1 10 -9 10 -9 0
-16 -4 -16 -10z"/>
<path d="M988 6463 c7 -3 16 -2 19 1 4 3 -2 6 -13 5 -11 0 -14 -3 -6 -6z"/>
<path d="M780 6450 c0 -5 7 -7 15 -4 8 4 15 8 15 10 0 2 -7 4 -15 4 -8 0 -15
-4 -15 -10z"/>
<path d="M548 6423 c7 -3 16 -2 19 1 4 3 -2 6 -13 5 -11 0 -14 -3 -6 -6z"/>
<path d="M613 6407 c-17 -5 -34 -16 -37 -23 -4 -11 1 -11 31 1 20 9 39 18 42
20 10 10 -6 11 -36 2z"/>
<path d="M1036 6337 c3 -10 9 -15 12 -12 3 3 0 11 -7 18 -10 9 -11 8 -5 -6z"/>
<path d="M954 6295 c-16 -12 -17 -16 -5 -24 10 -6 19 -4 29 6 21 21 1 37 -24
18z"/>
<path d="M583 6283 c-18 -6 -16 -23 1 -23 17 0 30 16 19 23 -5 2 -14 2 -20 0z"/>
<path d="M432 6195 c-31 -39 -28 -55 4 -23 15 14 24 32 22 39 -3 8 -12 2 -26
-16z"/>
<path d="M420 6100 c0 -5 5 -10 10 -10 6 0 10 5 10 10 0 6 -4 10 -10 10 -5 0
-10 -4 -10 -10z"/>
<path d="M1115 6040 c-3 -5 -1 -10 4 -10 6 0 11 5 11 10 0 6 -2 10 -4 10 -3 0
-8 -4 -11 -10z"/>
<path d="M1080 6013 c0 -4 5 -15 10 -23 8 -13 10 -13 10 2 0 9 -4 20 -10 23
-5 3 -10 3 -10 -2z"/>
<path d="M1036 5993 c-9 -22 -3 -25 19 -10 15 12 16 15 2 20 -9 3 -18 -1 -21
-10z"/>
<path d="M403 5913 c9 -2 25 -2 35 0 9 3 1 5 -18 5 -19 0 -27 -2 -17 -5z"/>
<path d="M1215 5871 c3 -5 -1 -12 -7 -14 -8 -4 -7 -6 4 -6 23 -1 32 15 12 23
-8 3 -13 2 -9 -3z"/>
<path d="M1125 5801 c-3 -5 0 -13 6 -17 7 -4 9 -3 5 4 -3 5 0 13 6 15 9 4 10
6 1 6 -6 1 -14 -3 -18 -8z"/>
<path d="M608 5760 c-2 -22 0 -40 4 -40 5 0 8 18 8 40 0 22 -2 40 -4 40 -2 0
-6 -18 -8 -40z"/>
<path d="M1285 5687 c-11 -6 -26 -12 -33 -13 -22 -4 -27 -14 -12 -25 18 -11
69 -2 91 17 9 8 19 11 22 7 4 -3 7 -1 7 6 0 7 -8 11 -17 9 -10 -1 -23 0 -28 4
-6 3 -19 1 -30 -5z"/>
<path d="M1460 5654 c0 -8 5 -12 10 -9 6 4 8 11 5 16 -9 14 -15 11 -15 -7z"/>
<path d="M1400 5632 c0 -6 9 -12 20 -15 11 -3 20 -3 20 -1 0 2 -9 8 -20 14
-11 6 -20 7 -20 2z"/>
<path d="M1165 5620 c-3 -5 -1 -10 4 -10 6 0 11 5 11 10 0 6 -2 10 -4 10 -3 0
-8 -4 -11 -10z"/>
<path d="M1333 5598 c-29 -5 -53 -14 -53 -20 0 -6 -9 -8 -21 -5 -12 3 -18 3
-15 0 6 -7 -30 -36 -59 -47 -13 -6 -15 -10 -7 -13 6 -3 9 -9 6 -15 -4 -7 5 -8
27 -3 38 8 61 23 54 35 -3 5 -1 11 5 15 5 3 10 1 10 -6 0 -7 4 -8 13 -2 6 5
28 9 47 8 26 0 39 6 52 25 31 44 29 44 -59 28z m47 -22 c0 -3 -4 -8 -10 -11
-5 -3 -10 -1 -10 4 0 6 5 11 10 11 6 0 10 -2 10 -4z"/>
<path d="M371 5524 c0 -11 3 -14 6 -6 3 7 2 16 -1 19 -3 4 -6 -2 -5 -13z"/>
<path d="M1107 5497 c-2 -12 -8 -29 -11 -38 -5 -11 -1 -18 13 -22 11 -3 22 0
24 7 3 7 11 5 24 -6 11 -10 24 -18 30 -18 18 0 23 28 6 34 -11 4 -14 2 -9 -9
3 -8 2 -15 -3 -15 -5 0 -11 14 -14 30 -4 17 -12 30 -18 30 -6 0 -8 -7 -5 -16
3 -8 2 -12 -4 -9 -6 3 -10 15 -10 25 0 28 -17 33 -23 7z"/>
<path d="M372 5470 c0 -19 2 -27 5 -17 2 9 2 25 0 35 -3 9 -5 1 -5 -18z"/>
<path d="M1210 5475 c0 -8 2 -15 4 -15 2 0 6 7 10 15 3 8 1 15 -4 15 -6 0 -10
-7 -10 -15z"/>
<path d="M1156 5054 c-4 -11 -1 -14 11 -12 9 2 18 9 21 16 6 18 -25 15 -32 -4z"/>
<path d="M608 4850 c-10 -23 -6 -52 5 -41 5 5 7 19 5 32 -3 17 -6 20 -10 9z"/>
<path d="M716 4837 c3 -10 9 -15 12 -12 3 3 0 11 -7 18 -10 9 -11 8 -5 -6z"/>
<path d="M880 4769 c0 -5 5 -7 10 -4 6 3 10 8 10 11 0 2 -4 4 -10 4 -5 0 -10
-5 -10 -11z"/>
<path d="M953 4725 c2 -16 8 -30 13 -32 16 -5 14 35 -2 48 -13 11 -15 8 -11
-16z"/>
<path d="M850 4623 c0 -38 12 -62 27 -56 14 5 14 8 -2 19 -10 7 -15 20 -12 28
4 9 2 18 -3 21 -6 4 -10 -2 -10 -12z"/>
<path d="M734 4576 c-3 -13 -1 -33 5 -45 6 -11 12 -31 13 -45 1 -15 8 -26 15
-26 15 0 15 -5 7 -38 -4 -14 -12 -21 -20 -18 -8 3 -14 1 -14 -4 0 -14 26 -12
38 3 9 11 9 53 -1 107 -2 14 -5 29 -6 34 0 4 -7 6 -15 3 -14 -6 -16 16 -3 29
10 11 9 24 -3 24 -5 0 -12 -11 -16 -24z"/>
<path d="M690 4559 c0 -5 5 -7 10 -4 6 3 10 8 10 11 0 2 -4 4 -10 4 -5 0 -10
-5 -10 -11z"/>
<path d="M928 4548 c5 -5 16 -8 23 -6 8 3 3 7 -10 11 -17 4 -21 3 -13 -5z"/>
<path d="M740 4275 c-11 -13 -10 -14 4 -9 9 3 16 10 16 15 0 13 -6 11 -20 -6z"/>
<path d="M490 4214 c0 -8 5 -12 10 -9 6 4 8 11 5 16 -9 14 -15 11 -15 -7z"/>
<path d="M615 4200 c3 -5 8 -10 11 -10 2 0 4 5 4 10 0 6 -5 10 -11 10 -5 0 -7
-4 -4 -10z"/>
<path d="M985 4180 c3 -5 8 -10 11 -10 2 0 4 5 4 10 0 6 -5 10 -11 10 -5 0 -7
-4 -4 -10z"/>
<path d="M626 4142 c-3 -5 1 -9 9 -9 8 0 15 4 15 9 0 4 -4 8 -9 8 -6 0 -12 -4
-15 -8z"/>
<path d="M599 4087 c-1 -4 -2 -10 -3 -14 -1 -5 -4 -13 -8 -19 -4 -6 -7 -31 -6
-56 0 -24 -3 -55 -7 -67 -5 -16 -4 -21 3 -17 9 5 40 -33 34 -41 -7 -10 0 -23
9 -17 6 3 8 16 5 27 -3 12 -1 26 4 32 5 6 5 17 -1 25 -8 13 -10 13 -18 1 -7
-11 -10 -9 -16 8 -4 15 -1 29 9 40 9 10 16 26 16 37 0 16 -2 17 -10 4 -5 -8
-10 -10 -10 -5 0 6 4 16 9 24 7 11 11 10 20 -5 8 -16 10 -16 11 -3 0 15 -39
59 -41 46z"/>
<path d="M555 4020 c3 -5 8 -10 11 -10 2 0 4 5 4 10 0 6 -5 10 -11 10 -5 0 -7
-4 -4 -10z"/>
<path d="M940 3794 c0 -8 5 -12 10 -9 6 4 8 11 5 16 -9 14 -15 11 -15 -7z"/>
<path d="M555 3780 c-3 -5 -1 -10 4 -10 6 0 11 5 11 10 0 6 -2 10 -4 10 -3 0
-8 -4 -11 -10z"/>
<path d="M527 3763 c-4 -3 -7 -14 -7 -24 0 -9 -6 -20 -12 -22 -7 -3 -3 -6 10
-6 24 -1 44 30 24 37 -7 2 -10 8 -6 13 6 10 0 12 -9 2z"/>
<path d="M500 3689 c0 -5 5 -7 10 -4 6 3 10 8 10 11 0 2 -4 4 -10 4 -5 0 -10
-5 -10 -11z"/>
<path d="M2480 6060 c0 -5 5 -10 10 -10 6 0 10 5 10 10 0 6 -4 10 -10 10 -5 0
-10 -4 -10 -10z"/>
<path d="M2510 6060 c0 -5 5 -10 11 -10 5 0 7 5 4 10 -3 6 -8 10 -11 10 -2 0
-4 -4 -4 -10z"/>
<path d="M3620 5830 c-8 -5 -12 -11 -10 -14 3 -2 14 2 24 10 22 15 10 19 -14
4z"/>
<path d="M2548 5683 c12 -2 32 -2 45 0 12 2 2 4 -23 4 -25 0 -35 -2 -22 -4z"/>
<path d="M2718 5613 c6 -2 18 -2 25 0 6 3 1 5 -13 5 -14 0 -19 -2 -12 -5z"/>
<path d="M2918 5323 c6 -2 18 -2 25 0 6 3 1 5 -13 5 -14 0 -19 -2 -12 -5z"/>
<path d="M2955 5030 c3 -5 8 -10 11 -10 2 0 4 5 4 10 0 6 -5 10 -11 10 -5 0
-7 -4 -4 -10z"/>
<path d="M3829 1050 c-9 -5 -30 -11 -47 -12 -40 -3 -29 -26 21 -43 31 -10 39
-10 62 5 27 18 27 18 6 32 -11 8 -18 18 -14 21 10 10 -10 8 -28 -3z"/>
<path d="M3850 900 c14 -25 27 -33 35 -19 8 13 -8 32 -30 35 -11 2 -13 -2 -5
-16z"/>
<path d="M3908 853 c7 -3 16 -2 19 1 4 3 -2 6 -13 5 -11 0 -14 -3 -6 -6z"/>
<path d="M2398 733 c7 -3 16 -2 19 1 4 3 -2 6 -13 5 -11 0 -14 -3 -6 -6z"/>
<path d="M2420 683 c0 -7 4 -13 9 -13 5 0 11 6 14 13 3 8 -1 14 -9 14 -8 0
-14 -6 -14 -14z"/>
<path d="M2550 686 c0 -2 7 -7 16 -10 8 -3 12 -2 9 4 -6 10 -25 14 -25 6z"/>
<path d="M2440 620 c0 -5 5 -10 10 -10 6 0 10 5 10 10 0 6 -4 10 -10 10 -5 0
-10 -4 -10 -10z"/>
<path d="M4446 7251 c-4 -5 -2 -12 3 -15 5 -4 12 -2 15 3 4 5 2 12 -3 15 -5 4
-12 2 -15 -3z"/>
<path d="M4130 7089 c0 -5 5 -7 10 -4 6 3 10 8 10 11 0 2 -4 4 -10 4 -5 0 -10
-5 -10 -11z"/>
<path d="M4136 7023 c-8 -35 -2 -53 18 -53 14 0 14 23 -1 60 l-10 25 -7 -32z"/>
<path d="M4603 6603 c9 -2 25 -2 35 0 9 3 1 5 -18 5 -19 0 -27 -2 -17 -5z"/>
<path d="M5700 6560 c14 -10 27 -17 29 -14 7 7 -17 28 -36 30 -14 2 -12 -2 7
-16z"/>
<path d="M1741 6510 c14 -38 19 -38 16 0 -1 16 -7 30 -14 30 -9 0 -9 -8 -2
-30z"/>
<path d="M5425 6310 c-3 -5 -1 -10 4 -10 6 0 11 5 11 10 0 6 -2 10 -4 10 -3 0
-8 -4 -11 -10z"/>
<path d="M5060 6299 c0 -5 4 -8 9 -4 5 3 12 -5 14 -17 4 -20 4 -19 6 5 1 18
-4 27 -14 27 -8 0 -15 -5 -15 -11z"/>
<path d="M5530 6290 c0 -5 5 -10 11 -10 5 0 7 5 4 10 -3 6 -8 10 -11 10 -2 0
-4 -4 -4 -10z"/>
<path d="M5783 6294 c-8 -4 -9 -13 -1 -35 14 -40 28 -37 28 6 0 34 -3 38 -27
29z"/>
<path d="M5780 5960 c0 -20 5 -30 15 -30 10 0 15 10 15 30 0 20 -5 30 -15 30
-10 0 -15 -10 -15 -30z"/>
<path d="M4785 5811 c-6 -11 13 -26 22 -17 4 3 1 6 -6 6 -7 0 -9 5 -6 10 3 6
4 10 1 10 -3 0 -7 -4 -11 -9z"/>
<path d="M4766 5779 c3 -5 0 -9 -5 -9 -6 0 -11 -4 -11 -9 0 -10 26 -9 36 2 4
4 13 2 20 -4 7 -5 15 -6 18 -1 3 5 -10 14 -29 20 -19 5 -33 6 -29 1z"/>
<path d="M4745 5730 c-3 -6 1 -7 9 -4 18 7 21 14 7 14 -6 0 -13 -4 -16 -10z"/>
<path d="M4627 5674 c-9 -9 4 -35 14 -28 5 3 9 0 9 -7 0 -16 13 -3 16 15 1 9
-5 12 -20 9 -17 -4 -18 -3 -6 6 8 6 10 11 4 11 -6 0 -13 -3 -17 -6z"/>
<path d="M4495 5580 c-3 -5 -1 -10 4 -10 6 0 11 5 11 10 0 6 -2 10 -4 10 -3 0
-8 -4 -11 -10z"/>
<path d="M5440 5505 c0 -16 16 -20 24 -6 3 5 -1 11 -9 15 -9 3 -15 0 -15 -9z"/>
<path d="M5377 5496 c-3 -8 3 -12 19 -12 31 2 36 18 7 22 -11 2 -23 -2 -26
-10z"/>
<path d="M5540 5490 c0 -5 7 -10 15 -10 8 0 15 5 15 10 0 6 -7 10 -15 10 -8 0
-15 -4 -15 -10z"/>
<path d="M3983 2355 c-18 -19 -16 -25 5 -25 11 0 27 9 37 20 18 19 17 20 -6
20 -13 -1 -30 -7 -36 -15z"/>
<path d="M4030 2335 c0 -8 2 -15 4 -15 2 0 6 7 10 15 3 8 1 15 -4 15 -6 0 -10
-7 -10 -15z"/>
<path d="M4108 2343 c7 -3 16 -2 19 1 4 3 -2 6 -13 5 -11 0 -14 -3 -6 -6z"/>
<path d="M2870 2056 c0 -2 7 -9 15 -16 13 -11 14 -10 9 4 -5 14 -24 23 -24 12z"/>
<path d="M3380 2048 c-19 -5 -59 -13 -89 -18 -29 -5 -58 -13 -64 -19 -6 -6 -9
-11 -6 -11 40 0 241 -46 264 -60 l31 -19 -4 28 c-3 22 -11 31 -31 36 -25 6
-26 7 -6 21 26 19 22 26 -18 41 -38 14 -33 13 -77 1z"/>
<path d="M2783 2043 c9 -2 23 -2 30 0 6 3 -1 5 -18 5 -16 0 -22 -2 -12 -5z"/>
<path d="M2698 2033 c12 -2 30 -2 40 0 9 3 -1 5 -23 4 -22 0 -30 -2 -17 -4z"/>
<path d="M2613 2023 c9 -2 23 -2 30 0 6 3 -1 5 -18 5 -16 0 -22 -2 -12 -5z"/>
<path d="M3545 1030 c-3 -6 1 -7 9 -4 18 7 21 14 7 14 -6 0 -13 -4 -16 -10z"/>
<path d="M3135 940 c3 -5 10 -10 16 -10 5 0 9 5 9 10 0 6 -7 10 -16 10 -8 0
-12 -4 -9 -10z"/>
<path d="M2753 915 c0 -8 4 -15 9 -15 4 0 8 4 8 9 0 6 -4 12 -8 15 -5 3 -9 -1
-9 -9z"/>
<path d="M2785 912 c-13 -14 -2 -22 24 -17 34 6 44 -5 45 -48 1 -25 5 -30 31
-33 16 -2 34 1 40 6 6 5 26 11 45 13 57 7 88 18 94 33 5 14 -27 28 -55 23 -8
-1 -22 1 -32 6 -10 4 -24 2 -33 -6 -13 -10 -17 -10 -24 1 -5 8 -12 12 -15 8
-3 -3 1 -12 9 -21 14 -13 13 -15 -5 -20 -12 -3 -28 -3 -36 0 -13 5 -14 8 -2
17 20 15 22 36 4 36 -8 0 -15 -6 -15 -12 -1 -9 -4 -8 -13 2 -12 15 -51 22 -62
12z"/>
<path d="M3552 913 c-6 -3 -10 -9 -6 -14 3 -5 -1 -9 -8 -9 -7 -1 1 -8 17 -17
17 -10 35 -16 42 -15 6 1 14 -2 18 -8 3 -5 14 -10 23 -10 14 0 14 2 3 9 -11 7
-9 10 8 16 l22 7 -21 18 c-11 10 -29 17 -38 15 -9 -1 -20 3 -24 9 -5 7 -8 6
-8 -4 0 -10 -3 -11 -8 -4 -4 6 -13 9 -20 7z"/>
<path d="M2790 870 c0 -5 4 -10 9 -10 6 0 13 5 16 10 3 6 -1 10 -9 10 -9 0
-16 -4 -16 -10z"/>
<path d="M3427 846 c-6 -15 -3 -17 13 -13 12 3 24 -1 29 -11 12 -21 26 -9 17
14 -4 10 -13 14 -26 11 -10 -3 -21 0 -23 6 -2 6 -6 3 -10 -7z"/>
<path d="M2817 843 c-4 -3 -7 -11 -7 -17 0 -6 5 -5 12 2 6 6 9 14 7 17 -3 3
-9 2 -12 -2z"/>
<path d="M3228 810 c4 -27 6 -28 45 -24 44 6 69 26 39 33 -9 2 -20 8 -24 14
-4 8 -9 5 -14 -6 -6 -16 -9 -16 -28 -3 -21 13 -22 13 -18 -14z"/>
<path d="M3390 820 c0 -5 5 -10 11 -10 5 0 7 5 4 10 -3 6 -8 10 -11 10 -2 0
-4 -4 -4 -10z"/>
<path d="M2998 783 c-10 -2 -18 -13 -18 -24 0 -11 5 -17 10 -14 6 3 10 -2 10
-12 0 -45 92 -57 138 -18 16 14 34 25 40 25 5 0 16 8 23 17 10 11 10 14 2 9
-9 -4 -13 -1 -13 9 0 12 -5 15 -16 11 -9 -3 -18 -6 -20 -6 -2 0 -4 -7 -4 -15
0 -8 -5 -15 -11 -15 -5 0 -7 5 -4 10 9 14 -8 13 -23 -2 -20 -20 -42 -17 -48 6
-5 22 -29 28 -66 19z"/>
<path d="M2886 762 c-2 -4 2 -15 9 -25 11 -16 13 -16 19 -1 3 8 6 20 6 25 0
11 -27 12 -34 1z"/>
<path d="M3590 738 c0 -9 8 -22 18 -29 16 -13 16 -13 2 5 -8 11 -13 21 -12 23
2 3 1 7 -2 11 -3 3 -6 -2 -6 -10z"/>
<path d="M2916 722 c-3 -6 -15 -8 -26 -5 -32 8 -23 -15 12 -33 47 -24 95 -24
94 0 -1 13 -10 20 -30 22 -16 2 -32 8 -36 15 -5 7 -10 8 -14 1z"/>
<path d="M3203 685 c-10 -10 -9 -14 2 -19 8 -3 17 -1 20 4 3 5 14 7 25 5 11
-2 20 0 20 6 0 5 -3 9 -7 10 -5 0 -17 2 -28 4 -11 2 -25 -2 -32 -10z"/>
<path d="M3165 670 c3 -5 8 -10 11 -10 2 0 4 5 4 10 0 6 -5 10 -11 10 -5 0 -7
-4 -4 -10z"/>
</g>
</svg>
